<?xml version="1.0" encoding="utf-8" standalone="no"?>
<!DOCTYPE svg PUBLIC "-//W3C//DTD SVG 1.1//EN"
  "http://www.w3.org/Graphics/SVG/1.1/DTD/svg11.dtd">
<svg xmlns:xlink="http://www.w3.org/1999/xlink" width="996.94044pt" height="346.27625pt" viewBox="0 0 996.94044 346.27625" xmlns="http://www.w3.org/2000/svg" version="1.1">
 <metadata>
  <rdf:RDF xmlns:dc="http://purl.org/dc/elements/1.1/" xmlns:cc="http://creativecommons.org/ns#" xmlns:rdf="http://www.w3.org/1999/02/22-rdf-syntax-ns#">
   <cc:Work>
    <dc:type rdf:resource="http://purl.org/dc/dcmitype/StillImage"/>
    <dc:date>2025-02-19T18:12:56.234503</dc:date>
    <dc:format>image/svg+xml</dc:format>
    <dc:creator>
     <cc:Agent>
      <dc:title>Matplotlib v3.8.3, https://matplotlib.org/</dc:title>
     </cc:Agent>
    </dc:creator>
   </cc:Work>
  </rdf:RDF>
 </metadata>
 <defs>
  <style type="text/css">*{stroke-linejoin: round; stroke-linecap: butt}</style>
 </defs>
 <g id="figure_1">
  <g id="patch_1">
   <path d="M 0 346.27625 
L 996.94044 346.27625 
L 996.94044 0 
L 0 0 
L 0 346.27625 
z
" style="fill: none"/>
  </g>
  <g id="axes_1">
   <g id="patch_2">
    <path d="M 38.278125 315.92 
L 498.224283 315.92 
L 498.224283 32.03125 
L 38.278125 32.03125 
L 38.278125 315.92 
z
" style="fill: none"/>
   </g>
   <g id="PathCollection_1">
    <defs>
     <path id="mdb6e14b800" d="M 0 3 
C 0.795609 3 1.55874 2.683901 2.12132 2.12132 
C 2.683901 1.55874 3 0.795609 3 0 
C 3 -0.795609 2.683901 -1.55874 2.12132 -2.12132 
C 1.55874 -2.683901 0.795609 -3 0 -3 
C -0.795609 -3 -1.55874 -2.683901 -2.12132 -2.12132 
C -2.683901 -1.55874 -3 -0.795609 -3 0 
C -3 0.795609 -2.683901 1.55874 -2.12132 2.12132 
C -1.55874 2.683901 -0.795609 3 0 3 
z
" style="stroke: #ff7f0e"/>
    </defs>
    <g clip-path="url(#pa2cc385067)">
     <use xlink:href="#mdb6e14b800" x="90.202071" y="49.72539" style="fill: #ff7f0e; stroke: #ff7f0e"/>
    </g>
   </g>
   <g id="matplotlib.axis_1">
    <g id="xtick_1">
     <g id="line2d_1">
      <path d="M 44.317822 315.92 
L 44.317822 32.03125 
" clip-path="url(#pa2cc385067)" style="fill: none; stroke: #b0b0b0; stroke-width: 0.8; stroke-linecap: square"/>
     </g>
     <g id="line2d_2">
      <defs>
       <path id="m0b6bae86b8" d="M 0 0 
L 0 3.5 
" style="stroke: #808080; stroke-width: 0.8"/>
      </defs>
      <g>
       <use xlink:href="#m0b6bae86b8" x="44.317822" y="315.92" style="fill: #808080; stroke: #808080; stroke-width: 0.8"/>
      </g>
     </g>
     <g id="text_1">
      <!-- 0 -->
      <g style="fill: #808080" transform="translate(41.136572 330.518437) scale(0.1 -0.1)">
       <defs>
        <path id="DejaVuSans-30" d="M 2034 4250 
Q 1547 4250 1301 3770 
Q 1056 3291 1056 2328 
Q 1056 1369 1301 889 
Q 1547 409 2034 409 
Q 2525 409 2770 889 
Q 3016 1369 3016 2328 
Q 3016 3291 2770 3770 
Q 2525 4250 2034 4250 
z
M 2034 4750 
Q 2819 4750 3233 4129 
Q 3647 3509 3647 2328 
Q 3647 1150 3233 529 
Q 2819 -91 2034 -91 
Q 1250 -91 836 529 
Q 422 1150 422 2328 
Q 422 3509 836 4129 
Q 1250 4750 2034 4750 
z
" transform="scale(0.015625)"/>
       </defs>
       <use xlink:href="#DejaVuSans-30"/>
      </g>
     </g>
    </g>
    <g id="xtick_2">
     <g id="line2d_3">
      <path d="M 118.652555 315.92 
L 118.652555 32.03125 
" clip-path="url(#pa2cc385067)" style="fill: none; stroke: #b0b0b0; stroke-width: 0.8; stroke-linecap: square"/>
     </g>
     <g id="line2d_4">
      <g>
       <use xlink:href="#m0b6bae86b8" x="118.652555" y="315.92" style="fill: #808080; stroke: #808080; stroke-width: 0.8"/>
      </g>
     </g>
     <g id="text_2">
      <!-- 1 -->
      <g style="fill: #808080" transform="translate(115.471305 330.518437) scale(0.1 -0.1)">
       <defs>
        <path id="DejaVuSans-31" d="M 794 531 
L 1825 531 
L 1825 4091 
L 703 3866 
L 703 4441 
L 1819 4666 
L 2450 4666 
L 2450 531 
L 3481 531 
L 3481 0 
L 794 0 
L 794 531 
z
" transform="scale(0.015625)"/>
       </defs>
       <use xlink:href="#DejaVuSans-31"/>
      </g>
     </g>
    </g>
    <g id="xtick_3">
     <g id="line2d_5">
      <path d="M 192.987287 315.92 
L 192.987287 32.03125 
" clip-path="url(#pa2cc385067)" style="fill: none; stroke: #b0b0b0; stroke-width: 0.8; stroke-linecap: square"/>
     </g>
     <g id="line2d_6">
      <g>
       <use xlink:href="#m0b6bae86b8" x="192.987287" y="315.92" style="fill: #808080; stroke: #808080; stroke-width: 0.8"/>
      </g>
     </g>
     <g id="text_3">
      <!-- 2 -->
      <g style="fill: #808080" transform="translate(189.806037 330.518437) scale(0.1 -0.1)">
       <defs>
        <path id="DejaVuSans-32" d="M 1228 531 
L 3431 531 
L 3431 0 
L 469 0 
L 469 531 
Q 828 903 1448 1529 
Q 2069 2156 2228 2338 
Q 2531 2678 2651 2914 
Q 2772 3150 2772 3378 
Q 2772 3750 2511 3984 
Q 2250 4219 1831 4219 
Q 1534 4219 1204 4116 
Q 875 4013 500 3803 
L 500 4441 
Q 881 4594 1212 4672 
Q 1544 4750 1819 4750 
Q 2544 4750 2975 4387 
Q 3406 4025 3406 3419 
Q 3406 3131 3298 2873 
Q 3191 2616 2906 2266 
Q 2828 2175 2409 1742 
Q 1991 1309 1228 531 
z
" transform="scale(0.015625)"/>
       </defs>
       <use xlink:href="#DejaVuSans-32"/>
      </g>
     </g>
    </g>
    <g id="xtick_4">
     <g id="line2d_7">
      <path d="M 267.32202 315.92 
L 267.32202 32.03125 
" clip-path="url(#pa2cc385067)" style="fill: none; stroke: #b0b0b0; stroke-width: 0.8; stroke-linecap: square"/>
     </g>
     <g id="line2d_8">
      <g>
       <use xlink:href="#m0b6bae86b8" x="267.32202" y="315.92" style="fill: #808080; stroke: #808080; stroke-width: 0.8"/>
      </g>
     </g>
     <g id="text_4">
      <!-- 3 -->
      <g style="fill: #808080" transform="translate(264.14077 330.518437) scale(0.1 -0.1)">
       <defs>
        <path id="DejaVuSans-33" d="M 2597 2516 
Q 3050 2419 3304 2112 
Q 3559 1806 3559 1356 
Q 3559 666 3084 287 
Q 2609 -91 1734 -91 
Q 1441 -91 1130 -33 
Q 819 25 488 141 
L 488 750 
Q 750 597 1062 519 
Q 1375 441 1716 441 
Q 2309 441 2620 675 
Q 2931 909 2931 1356 
Q 2931 1769 2642 2001 
Q 2353 2234 1838 2234 
L 1294 2234 
L 1294 2753 
L 1863 2753 
Q 2328 2753 2575 2939 
Q 2822 3125 2822 3475 
Q 2822 3834 2567 4026 
Q 2313 4219 1838 4219 
Q 1578 4219 1281 4162 
Q 984 4106 628 3988 
L 628 4550 
Q 988 4650 1302 4700 
Q 1616 4750 1894 4750 
Q 2613 4750 3031 4423 
Q 3450 4097 3450 3541 
Q 3450 3153 3228 2886 
Q 3006 2619 2597 2516 
z
" transform="scale(0.015625)"/>
       </defs>
       <use xlink:href="#DejaVuSans-33"/>
      </g>
     </g>
    </g>
    <g id="xtick_5">
     <g id="line2d_9">
      <path d="M 341.656752 315.92 
L 341.656752 32.03125 
" clip-path="url(#pa2cc385067)" style="fill: none; stroke: #b0b0b0; stroke-width: 0.8; stroke-linecap: square"/>
     </g>
     <g id="line2d_10">
      <g>
       <use xlink:href="#m0b6bae86b8" x="341.656752" y="315.92" style="fill: #808080; stroke: #808080; stroke-width: 0.8"/>
      </g>
     </g>
     <g id="text_5">
      <!-- 4 -->
      <g style="fill: #808080" transform="translate(338.475502 330.518437) scale(0.1 -0.1)">
       <defs>
        <path id="DejaVuSans-34" d="M 2419 4116 
L 825 1625 
L 2419 1625 
L 2419 4116 
z
M 2253 4666 
L 3047 4666 
L 3047 1625 
L 3713 1625 
L 3713 1100 
L 3047 1100 
L 3047 0 
L 2419 0 
L 2419 1100 
L 313 1100 
L 313 1709 
L 2253 4666 
z
" transform="scale(0.015625)"/>
       </defs>
       <use xlink:href="#DejaVuSans-34"/>
      </g>
     </g>
    </g>
    <g id="xtick_6">
     <g id="line2d_11">
      <path d="M 415.991485 315.92 
L 415.991485 32.03125 
" clip-path="url(#pa2cc385067)" style="fill: none; stroke: #b0b0b0; stroke-width: 0.8; stroke-linecap: square"/>
     </g>
     <g id="line2d_12">
      <g>
       <use xlink:href="#m0b6bae86b8" x="415.991485" y="315.92" style="fill: #808080; stroke: #808080; stroke-width: 0.8"/>
      </g>
     </g>
     <g id="text_6">
      <!-- 5 -->
      <g style="fill: #808080" transform="translate(412.810235 330.518437) scale(0.1 -0.1)">
       <defs>
        <path id="DejaVuSans-35" d="M 691 4666 
L 3169 4666 
L 3169 4134 
L 1269 4134 
L 1269 2991 
Q 1406 3038 1543 3061 
Q 1681 3084 1819 3084 
Q 2600 3084 3056 2656 
Q 3513 2228 3513 1497 
Q 3513 744 3044 326 
Q 2575 -91 1722 -91 
Q 1428 -91 1123 -41 
Q 819 9 494 109 
L 494 744 
Q 775 591 1075 516 
Q 1375 441 1709 441 
Q 2250 441 2565 725 
Q 2881 1009 2881 1497 
Q 2881 1984 2565 2268 
Q 2250 2553 1709 2553 
Q 1456 2553 1204 2497 
Q 953 2441 691 2322 
L 691 4666 
z
" transform="scale(0.015625)"/>
       </defs>
       <use xlink:href="#DejaVuSans-35"/>
      </g>
     </g>
    </g>
    <g id="xtick_7">
     <g id="line2d_13">
      <path d="M 490.326217 315.92 
L 490.326217 32.03125 
" clip-path="url(#pa2cc385067)" style="fill: none; stroke: #b0b0b0; stroke-width: 0.8; stroke-linecap: square"/>
     </g>
     <g id="line2d_14">
      <g>
       <use xlink:href="#m0b6bae86b8" x="490.326217" y="315.92" style="fill: #808080; stroke: #808080; stroke-width: 0.8"/>
      </g>
     </g>
     <g id="text_7">
      <!-- 6 -->
      <g style="fill: #808080" transform="translate(487.144967 330.518437) scale(0.1 -0.1)">
       <defs>
        <path id="DejaVuSans-36" d="M 2113 2584 
Q 1688 2584 1439 2293 
Q 1191 2003 1191 1497 
Q 1191 994 1439 701 
Q 1688 409 2113 409 
Q 2538 409 2786 701 
Q 3034 994 3034 1497 
Q 3034 2003 2786 2293 
Q 2538 2584 2113 2584 
z
M 3366 4563 
L 3366 3988 
Q 3128 4100 2886 4159 
Q 2644 4219 2406 4219 
Q 1781 4219 1451 3797 
Q 1122 3375 1075 2522 
Q 1259 2794 1537 2939 
Q 1816 3084 2150 3084 
Q 2853 3084 3261 2657 
Q 3669 2231 3669 1497 
Q 3669 778 3244 343 
Q 2819 -91 2113 -91 
Q 1303 -91 875 529 
Q 447 1150 447 2328 
Q 447 3434 972 4092 
Q 1497 4750 2381 4750 
Q 2619 4750 2861 4703 
Q 3103 4656 3366 4563 
z
" transform="scale(0.015625)"/>
       </defs>
       <use xlink:href="#DejaVuSans-36"/>
      </g>
     </g>
    </g>
    <g id="text_8">
     <!-- $2\theta$ -->
     <g style="fill: #808080" transform="translate(262.001204 344.196562) scale(0.1 -0.1)">
      <defs>
       <path id="DejaVuSans-Oblique-3b8" d="M 2913 2219 
L 925 2219 
Q 791 1284 928 888 
Q 1100 400 1566 400 
Q 2034 400 2391 891 
Q 2703 1322 2913 2219 
z
M 3009 2750 
Q 3094 3638 2984 3950 
Q 2813 4444 2353 4444 
Q 1875 4444 1525 3956 
Q 1250 3563 1034 2750 
L 3009 2750 
z
M 2444 4913 
Q 3194 4913 3494 4250 
Q 3794 3591 3566 2422 
Q 3341 1256 2781 594 
Q 2225 -72 1475 -72 
Q 722 -72 425 594 
Q 128 1256 353 2422 
Q 581 3591 1134 4250 
Q 1691 4913 2444 4913 
z
" transform="scale(0.015625)"/>
      </defs>
      <use xlink:href="#DejaVuSans-32" transform="translate(0 0.234375)"/>
      <use xlink:href="#DejaVuSans-Oblique-3b8" transform="translate(63.623047 0.234375)"/>
     </g>
    </g>
   </g>
   <g id="matplotlib.axis_2">
    <g id="ytick_1">
     <g id="line2d_15">
      <path d="M 38.278125 310.078569 
L 498.224283 310.078569 
" clip-path="url(#pa2cc385067)" style="fill: none; stroke: #b0b0b0; stroke-width: 0.8; stroke-linecap: square"/>
     </g>
     <g id="line2d_16">
      <defs>
       <path id="m87af5dda4e" d="M 0 0 
L -3.5 0 
" style="stroke: #808080; stroke-width: 0.8"/>
      </defs>
      <g>
       <use xlink:href="#m87af5dda4e" x="38.278125" y="310.078569" style="fill: #808080; stroke: #808080; stroke-width: 0.8"/>
      </g>
     </g>
     <g id="text_9">
      <!-- $\mathdefault{10^{0}}$ -->
      <g style="fill: #808080" transform="translate(13.678125 313.877787) scale(0.1 -0.1)">
       <use xlink:href="#DejaVuSans-31" transform="translate(0 0.765625)"/>
       <use xlink:href="#DejaVuSans-30" transform="translate(63.623047 0.765625)"/>
       <use xlink:href="#DejaVuSans-30" transform="translate(128.203125 39.046875) scale(0.7)"/>
      </g>
     </g>
    </g>
    <g id="ytick_2">
     <g id="line2d_17">
      <path d="M 38.278125 265.854614 
L 498.224283 265.854614 
" clip-path="url(#pa2cc385067)" style="fill: none; stroke: #b0b0b0; stroke-width: 0.8; stroke-linecap: square"/>
     </g>
     <g id="line2d_18">
      <g>
       <use xlink:href="#m87af5dda4e" x="38.278125" y="265.854614" style="fill: #808080; stroke: #808080; stroke-width: 0.8"/>
      </g>
     </g>
     <g id="text_10">
      <!-- $\mathdefault{10^{1}}$ -->
      <g style="fill: #808080" transform="translate(13.678125 269.653833) scale(0.1 -0.1)">
       <use xlink:href="#DejaVuSans-31" transform="translate(0 0.684375)"/>
       <use xlink:href="#DejaVuSans-30" transform="translate(63.623047 0.684375)"/>
       <use xlink:href="#DejaVuSans-31" transform="translate(128.203125 38.965625) scale(0.7)"/>
      </g>
     </g>
    </g>
    <g id="ytick_3">
     <g id="line2d_19">
      <path d="M 38.278125 221.63066 
L 498.224283 221.63066 
" clip-path="url(#pa2cc385067)" style="fill: none; stroke: #b0b0b0; stroke-width: 0.8; stroke-linecap: square"/>
     </g>
     <g id="line2d_20">
      <g>
       <use xlink:href="#m87af5dda4e" x="38.278125" y="221.63066" style="fill: #808080; stroke: #808080; stroke-width: 0.8"/>
      </g>
     </g>
     <g id="text_11">
      <!-- $\mathdefault{10^{2}}$ -->
      <g style="fill: #808080" transform="translate(13.678125 225.429878) scale(0.1 -0.1)">
       <use xlink:href="#DejaVuSans-31" transform="translate(0 0.765625)"/>
       <use xlink:href="#DejaVuSans-30" transform="translate(63.623047 0.765625)"/>
       <use xlink:href="#DejaVuSans-32" transform="translate(128.203125 39.046875) scale(0.7)"/>
      </g>
     </g>
    </g>
    <g id="ytick_4">
     <g id="line2d_21">
      <path d="M 38.278125 177.406705 
L 498.224283 177.406705 
" clip-path="url(#pa2cc385067)" style="fill: none; stroke: #b0b0b0; stroke-width: 0.8; stroke-linecap: square"/>
     </g>
     <g id="line2d_22">
      <g>
       <use xlink:href="#m87af5dda4e" x="38.278125" y="177.406705" style="fill: #808080; stroke: #808080; stroke-width: 0.8"/>
      </g>
     </g>
     <g id="text_12">
      <!-- $\mathdefault{10^{3}}$ -->
      <g style="fill: #808080" transform="translate(13.678125 181.205924) scale(0.1 -0.1)">
       <use xlink:href="#DejaVuSans-31" transform="translate(0 0.765625)"/>
       <use xlink:href="#DejaVuSans-30" transform="translate(63.623047 0.765625)"/>
       <use xlink:href="#DejaVuSans-33" transform="translate(128.203125 39.046875) scale(0.7)"/>
      </g>
     </g>
    </g>
    <g id="ytick_5">
     <g id="line2d_23">
      <path d="M 38.278125 133.182751 
L 498.224283 133.182751 
" clip-path="url(#pa2cc385067)" style="fill: none; stroke: #b0b0b0; stroke-width: 0.8; stroke-linecap: square"/>
     </g>
     <g id="line2d_24">
      <g>
       <use xlink:href="#m87af5dda4e" x="38.278125" y="133.182751" style="fill: #808080; stroke: #808080; stroke-width: 0.8"/>
      </g>
     </g>
     <g id="text_13">
      <!-- $\mathdefault{10^{4}}$ -->
      <g style="fill: #808080" transform="translate(13.678125 136.981969) scale(0.1 -0.1)">
       <use xlink:href="#DejaVuSans-31" transform="translate(0 0.684375)"/>
       <use xlink:href="#DejaVuSans-30" transform="translate(63.623047 0.684375)"/>
       <use xlink:href="#DejaVuSans-34" transform="translate(128.203125 38.965625) scale(0.7)"/>
      </g>
     </g>
    </g>
    <g id="ytick_6">
     <g id="line2d_25">
      <path d="M 38.278125 88.958796 
L 498.224283 88.958796 
" clip-path="url(#pa2cc385067)" style="fill: none; stroke: #b0b0b0; stroke-width: 0.8; stroke-linecap: square"/>
     </g>
     <g id="line2d_26">
      <g>
       <use xlink:href="#m87af5dda4e" x="38.278125" y="88.958796" style="fill: #808080; stroke: #808080; stroke-width: 0.8"/>
      </g>
     </g>
     <g id="text_14">
      <!-- $\mathdefault{10^{5}}$ -->
      <g style="fill: #808080" transform="translate(13.678125 92.758015) scale(0.1 -0.1)">
       <use xlink:href="#DejaVuSans-31" transform="translate(0 0.684375)"/>
       <use xlink:href="#DejaVuSans-30" transform="translate(63.623047 0.684375)"/>
       <use xlink:href="#DejaVuSans-35" transform="translate(128.203125 38.965625) scale(0.7)"/>
      </g>
     </g>
    </g>
    <g id="ytick_7">
     <g id="line2d_27">
      <path d="M 38.278125 44.734842 
L 498.224283 44.734842 
" clip-path="url(#pa2cc385067)" style="fill: none; stroke: #b0b0b0; stroke-width: 0.8; stroke-linecap: square"/>
     </g>
     <g id="line2d_28">
      <g>
       <use xlink:href="#m87af5dda4e" x="38.278125" y="44.734842" style="fill: #808080; stroke: #808080; stroke-width: 0.8"/>
      </g>
     </g>
     <g id="text_15">
      <!-- $\mathdefault{10^{6}}$ -->
      <g style="fill: #808080" transform="translate(13.678125 48.53406) scale(0.1 -0.1)">
       <use xlink:href="#DejaVuSans-31" transform="translate(0 0.765625)"/>
       <use xlink:href="#DejaVuSans-30" transform="translate(63.623047 0.765625)"/>
       <use xlink:href="#DejaVuSans-36" transform="translate(128.203125 39.046875) scale(0.7)"/>
      </g>
     </g>
    </g>
    <g id="ytick_8">
     <g id="line2d_29">
      <defs>
       <path id="m125cd543f4" d="M 0 0 
L -2 0 
" style="stroke: #808080; stroke-width: 0.6"/>
      </defs>
      <g>
       <use xlink:href="#m125cd543f4" x="38.278125" y="314.364313" style="fill: #808080; stroke: #808080; stroke-width: 0.6"/>
      </g>
     </g>
    </g>
    <g id="ytick_9">
     <g id="line2d_30">
      <g>
       <use xlink:href="#m125cd543f4" x="38.278125" y="312.102146" style="fill: #808080; stroke: #808080; stroke-width: 0.6"/>
      </g>
     </g>
    </g>
    <g id="ytick_10">
     <g id="line2d_31">
      <g>
       <use xlink:href="#m125cd543f4" x="38.278125" y="296.765832" style="fill: #808080; stroke: #808080; stroke-width: 0.6"/>
      </g>
     </g>
    </g>
    <g id="ytick_11">
     <g id="line2d_32">
      <g>
       <use xlink:href="#m125cd543f4" x="38.278125" y="288.97838" style="fill: #808080; stroke: #808080; stroke-width: 0.6"/>
      </g>
     </g>
    </g>
    <g id="ytick_12">
     <g id="line2d_33">
      <g>
       <use xlink:href="#m125cd543f4" x="38.278125" y="283.453095" style="fill: #808080; stroke: #808080; stroke-width: 0.6"/>
      </g>
     </g>
    </g>
    <g id="ytick_13">
     <g id="line2d_34">
      <g>
       <use xlink:href="#m125cd543f4" x="38.278125" y="279.167351" style="fill: #808080; stroke: #808080; stroke-width: 0.6"/>
      </g>
     </g>
    </g>
    <g id="ytick_14">
     <g id="line2d_35">
      <g>
       <use xlink:href="#m125cd543f4" x="38.278125" y="275.665643" style="fill: #808080; stroke: #808080; stroke-width: 0.6"/>
      </g>
     </g>
    </g>
    <g id="ytick_15">
     <g id="line2d_36">
      <g>
       <use xlink:href="#m125cd543f4" x="38.278125" y="272.704991" style="fill: #808080; stroke: #808080; stroke-width: 0.6"/>
      </g>
     </g>
    </g>
    <g id="ytick_16">
     <g id="line2d_37">
      <g>
       <use xlink:href="#m125cd543f4" x="38.278125" y="270.140358" style="fill: #808080; stroke: #808080; stroke-width: 0.6"/>
      </g>
     </g>
    </g>
    <g id="ytick_17">
     <g id="line2d_38">
      <g>
       <use xlink:href="#m125cd543f4" x="38.278125" y="267.878191" style="fill: #808080; stroke: #808080; stroke-width: 0.6"/>
      </g>
     </g>
    </g>
    <g id="ytick_18">
     <g id="line2d_39">
      <g>
       <use xlink:href="#m125cd543f4" x="38.278125" y="252.541877" style="fill: #808080; stroke: #808080; stroke-width: 0.6"/>
      </g>
     </g>
    </g>
    <g id="ytick_19">
     <g id="line2d_40">
      <g>
       <use xlink:href="#m125cd543f4" x="38.278125" y="244.754426" style="fill: #808080; stroke: #808080; stroke-width: 0.6"/>
      </g>
     </g>
    </g>
    <g id="ytick_20">
     <g id="line2d_41">
      <g>
       <use xlink:href="#m125cd543f4" x="38.278125" y="239.229141" style="fill: #808080; stroke: #808080; stroke-width: 0.6"/>
      </g>
     </g>
    </g>
    <g id="ytick_21">
     <g id="line2d_42">
      <g>
       <use xlink:href="#m125cd543f4" x="38.278125" y="234.943396" style="fill: #808080; stroke: #808080; stroke-width: 0.6"/>
      </g>
     </g>
    </g>
    <g id="ytick_22">
     <g id="line2d_43">
      <g>
       <use xlink:href="#m125cd543f4" x="38.278125" y="231.441689" style="fill: #808080; stroke: #808080; stroke-width: 0.6"/>
      </g>
     </g>
    </g>
    <g id="ytick_23">
     <g id="line2d_44">
      <g>
       <use xlink:href="#m125cd543f4" x="38.278125" y="228.481037" style="fill: #808080; stroke: #808080; stroke-width: 0.6"/>
      </g>
     </g>
    </g>
    <g id="ytick_24">
     <g id="line2d_45">
      <g>
       <use xlink:href="#m125cd543f4" x="38.278125" y="225.916404" style="fill: #808080; stroke: #808080; stroke-width: 0.6"/>
      </g>
     </g>
    </g>
    <g id="ytick_25">
     <g id="line2d_46">
      <g>
       <use xlink:href="#m125cd543f4" x="38.278125" y="223.654237" style="fill: #808080; stroke: #808080; stroke-width: 0.6"/>
      </g>
     </g>
    </g>
    <g id="ytick_26">
     <g id="line2d_47">
      <g>
       <use xlink:href="#m125cd543f4" x="38.278125" y="208.317923" style="fill: #808080; stroke: #808080; stroke-width: 0.6"/>
      </g>
     </g>
    </g>
    <g id="ytick_27">
     <g id="line2d_48">
      <g>
       <use xlink:href="#m125cd543f4" x="38.278125" y="200.530471" style="fill: #808080; stroke: #808080; stroke-width: 0.6"/>
      </g>
     </g>
    </g>
    <g id="ytick_28">
     <g id="line2d_49">
      <g>
       <use xlink:href="#m125cd543f4" x="38.278125" y="195.005186" style="fill: #808080; stroke: #808080; stroke-width: 0.6"/>
      </g>
     </g>
    </g>
    <g id="ytick_29">
     <g id="line2d_50">
      <g>
       <use xlink:href="#m125cd543f4" x="38.278125" y="190.719442" style="fill: #808080; stroke: #808080; stroke-width: 0.6"/>
      </g>
     </g>
    </g>
    <g id="ytick_30">
     <g id="line2d_51">
      <g>
       <use xlink:href="#m125cd543f4" x="38.278125" y="187.217734" style="fill: #808080; stroke: #808080; stroke-width: 0.6"/>
      </g>
     </g>
    </g>
    <g id="ytick_31">
     <g id="line2d_52">
      <g>
       <use xlink:href="#m125cd543f4" x="38.278125" y="184.257082" style="fill: #808080; stroke: #808080; stroke-width: 0.6"/>
      </g>
     </g>
    </g>
    <g id="ytick_32">
     <g id="line2d_53">
      <g>
       <use xlink:href="#m125cd543f4" x="38.278125" y="181.692449" style="fill: #808080; stroke: #808080; stroke-width: 0.6"/>
      </g>
     </g>
    </g>
    <g id="ytick_33">
     <g id="line2d_54">
      <g>
       <use xlink:href="#m125cd543f4" x="38.278125" y="179.430282" style="fill: #808080; stroke: #808080; stroke-width: 0.6"/>
      </g>
     </g>
    </g>
    <g id="ytick_34">
     <g id="line2d_55">
      <g>
       <use xlink:href="#m125cd543f4" x="38.278125" y="164.093968" style="fill: #808080; stroke: #808080; stroke-width: 0.6"/>
      </g>
     </g>
    </g>
    <g id="ytick_35">
     <g id="line2d_56">
      <g>
       <use xlink:href="#m125cd543f4" x="38.278125" y="156.306516" style="fill: #808080; stroke: #808080; stroke-width: 0.6"/>
      </g>
     </g>
    </g>
    <g id="ytick_36">
     <g id="line2d_57">
      <g>
       <use xlink:href="#m125cd543f4" x="38.278125" y="150.781231" style="fill: #808080; stroke: #808080; stroke-width: 0.6"/>
      </g>
     </g>
    </g>
    <g id="ytick_37">
     <g id="line2d_58">
      <g>
       <use xlink:href="#m125cd543f4" x="38.278125" y="146.495487" style="fill: #808080; stroke: #808080; stroke-width: 0.6"/>
      </g>
     </g>
    </g>
    <g id="ytick_38">
     <g id="line2d_59">
      <g>
       <use xlink:href="#m125cd543f4" x="38.278125" y="142.99378" style="fill: #808080; stroke: #808080; stroke-width: 0.6"/>
      </g>
     </g>
    </g>
    <g id="ytick_39">
     <g id="line2d_60">
      <g>
       <use xlink:href="#m125cd543f4" x="38.278125" y="140.033128" style="fill: #808080; stroke: #808080; stroke-width: 0.6"/>
      </g>
     </g>
    </g>
    <g id="ytick_40">
     <g id="line2d_61">
      <g>
       <use xlink:href="#m125cd543f4" x="38.278125" y="137.468495" style="fill: #808080; stroke: #808080; stroke-width: 0.6"/>
      </g>
     </g>
    </g>
    <g id="ytick_41">
     <g id="line2d_62">
      <g>
       <use xlink:href="#m125cd543f4" x="38.278125" y="135.206328" style="fill: #808080; stroke: #808080; stroke-width: 0.6"/>
      </g>
     </g>
    </g>
    <g id="ytick_42">
     <g id="line2d_63">
      <g>
       <use xlink:href="#m125cd543f4" x="38.278125" y="119.870014" style="fill: #808080; stroke: #808080; stroke-width: 0.6"/>
      </g>
     </g>
    </g>
    <g id="ytick_43">
     <g id="line2d_64">
      <g>
       <use xlink:href="#m125cd543f4" x="38.278125" y="112.082562" style="fill: #808080; stroke: #808080; stroke-width: 0.6"/>
      </g>
     </g>
    </g>
    <g id="ytick_44">
     <g id="line2d_65">
      <g>
       <use xlink:href="#m125cd543f4" x="38.278125" y="106.557277" style="fill: #808080; stroke: #808080; stroke-width: 0.6"/>
      </g>
     </g>
    </g>
    <g id="ytick_45">
     <g id="line2d_66">
      <g>
       <use xlink:href="#m125cd543f4" x="38.278125" y="102.271533" style="fill: #808080; stroke: #808080; stroke-width: 0.6"/>
      </g>
     </g>
    </g>
    <g id="ytick_46">
     <g id="line2d_67">
      <g>
       <use xlink:href="#m125cd543f4" x="38.278125" y="98.769825" style="fill: #808080; stroke: #808080; stroke-width: 0.6"/>
      </g>
     </g>
    </g>
    <g id="ytick_47">
     <g id="line2d_68">
      <g>
       <use xlink:href="#m125cd543f4" x="38.278125" y="95.809173" style="fill: #808080; stroke: #808080; stroke-width: 0.6"/>
      </g>
     </g>
    </g>
    <g id="ytick_48">
     <g id="line2d_69">
      <g>
       <use xlink:href="#m125cd543f4" x="38.278125" y="93.24454" style="fill: #808080; stroke: #808080; stroke-width: 0.6"/>
      </g>
     </g>
    </g>
    <g id="ytick_49">
     <g id="line2d_70">
      <g>
       <use xlink:href="#m125cd543f4" x="38.278125" y="90.982373" style="fill: #808080; stroke: #808080; stroke-width: 0.6"/>
      </g>
     </g>
    </g>
    <g id="ytick_50">
     <g id="line2d_71">
      <g>
       <use xlink:href="#m125cd543f4" x="38.278125" y="75.646059" style="fill: #808080; stroke: #808080; stroke-width: 0.6"/>
      </g>
     </g>
    </g>
    <g id="ytick_51">
     <g id="line2d_72">
      <g>
       <use xlink:href="#m125cd543f4" x="38.278125" y="67.858607" style="fill: #808080; stroke: #808080; stroke-width: 0.6"/>
      </g>
     </g>
    </g>
    <g id="ytick_52">
     <g id="line2d_73">
      <g>
       <use xlink:href="#m125cd543f4" x="38.278125" y="62.333322" style="fill: #808080; stroke: #808080; stroke-width: 0.6"/>
      </g>
     </g>
    </g>
    <g id="ytick_53">
     <g id="line2d_74">
      <g>
       <use xlink:href="#m125cd543f4" x="38.278125" y="58.047578" style="fill: #808080; stroke: #808080; stroke-width: 0.6"/>
      </g>
     </g>
    </g>
    <g id="ytick_54">
     <g id="line2d_75">
      <g>
       <use xlink:href="#m125cd543f4" x="38.278125" y="54.545871" style="fill: #808080; stroke: #808080; stroke-width: 0.6"/>
      </g>
     </g>
    </g>
    <g id="ytick_55">
     <g id="line2d_76">
      <g>
       <use xlink:href="#m125cd543f4" x="38.278125" y="51.585219" style="fill: #808080; stroke: #808080; stroke-width: 0.6"/>
      </g>
     </g>
    </g>
    <g id="ytick_56">
     <g id="line2d_77">
      <g>
       <use xlink:href="#m125cd543f4" x="38.278125" y="49.020586" style="fill: #808080; stroke: #808080; stroke-width: 0.6"/>
      </g>
     </g>
    </g>
    <g id="ytick_57">
     <g id="line2d_78">
      <g>
       <use xlink:href="#m125cd543f4" x="38.278125" y="46.758419" style="fill: #808080; stroke: #808080; stroke-width: 0.6"/>
      </g>
     </g>
    </g>
    <g id="text_16">
     <!-- Intensity -->
     <g style="fill: #808080" transform="translate(7.598437 195.738125) rotate(-90) scale(0.1 -0.1)">
      <defs>
       <path id="DejaVuSans-49" d="M 628 4666 
L 1259 4666 
L 1259 0 
L 628 0 
L 628 4666 
z
" transform="scale(0.015625)"/>
       <path id="DejaVuSans-6e" d="M 3513 2113 
L 3513 0 
L 2938 0 
L 2938 2094 
Q 2938 2591 2744 2837 
Q 2550 3084 2163 3084 
Q 1697 3084 1428 2787 
Q 1159 2491 1159 1978 
L 1159 0 
L 581 0 
L 581 3500 
L 1159 3500 
L 1159 2956 
Q 1366 3272 1645 3428 
Q 1925 3584 2291 3584 
Q 2894 3584 3203 3211 
Q 3513 2838 3513 2113 
z
" transform="scale(0.015625)"/>
       <path id="DejaVuSans-74" d="M 1172 4494 
L 1172 3500 
L 2356 3500 
L 2356 3053 
L 1172 3053 
L 1172 1153 
Q 1172 725 1289 603 
Q 1406 481 1766 481 
L 2356 481 
L 2356 0 
L 1766 0 
Q 1100 0 847 248 
Q 594 497 594 1153 
L 594 3053 
L 172 3053 
L 172 3500 
L 594 3500 
L 594 4494 
L 1172 4494 
z
" transform="scale(0.015625)"/>
       <path id="DejaVuSans-65" d="M 3597 1894 
L 3597 1613 
L 953 1613 
Q 991 1019 1311 708 
Q 1631 397 2203 397 
Q 2534 397 2845 478 
Q 3156 559 3463 722 
L 3463 178 
Q 3153 47 2828 -22 
Q 2503 -91 2169 -91 
Q 1331 -91 842 396 
Q 353 884 353 1716 
Q 353 2575 817 3079 
Q 1281 3584 2069 3584 
Q 2775 3584 3186 3129 
Q 3597 2675 3597 1894 
z
M 3022 2063 
Q 3016 2534 2758 2815 
Q 2500 3097 2075 3097 
Q 1594 3097 1305 2825 
Q 1016 2553 972 2059 
L 3022 2063 
z
" transform="scale(0.015625)"/>
       <path id="DejaVuSans-73" d="M 2834 3397 
L 2834 2853 
Q 2591 2978 2328 3040 
Q 2066 3103 1784 3103 
Q 1356 3103 1142 2972 
Q 928 2841 928 2578 
Q 928 2378 1081 2264 
Q 1234 2150 1697 2047 
L 1894 2003 
Q 2506 1872 2764 1633 
Q 3022 1394 3022 966 
Q 3022 478 2636 193 
Q 2250 -91 1575 -91 
Q 1294 -91 989 -36 
Q 684 19 347 128 
L 347 722 
Q 666 556 975 473 
Q 1284 391 1588 391 
Q 1994 391 2212 530 
Q 2431 669 2431 922 
Q 2431 1156 2273 1281 
Q 2116 1406 1581 1522 
L 1381 1569 
Q 847 1681 609 1914 
Q 372 2147 372 2553 
Q 372 3047 722 3315 
Q 1072 3584 1716 3584 
Q 2034 3584 2315 3537 
Q 2597 3491 2834 3397 
z
" transform="scale(0.015625)"/>
       <path id="DejaVuSans-69" d="M 603 3500 
L 1178 3500 
L 1178 0 
L 603 0 
L 603 3500 
z
M 603 4863 
L 1178 4863 
L 1178 4134 
L 603 4134 
L 603 4863 
z
" transform="scale(0.015625)"/>
       <path id="DejaVuSans-79" d="M 2059 -325 
Q 1816 -950 1584 -1140 
Q 1353 -1331 966 -1331 
L 506 -1331 
L 506 -850 
L 844 -850 
Q 1081 -850 1212 -737 
Q 1344 -625 1503 -206 
L 1606 56 
L 191 3500 
L 800 3500 
L 1894 763 
L 2988 3500 
L 3597 3500 
L 2059 -325 
z
" transform="scale(0.015625)"/>
      </defs>
      <use xlink:href="#DejaVuSans-49"/>
      <use xlink:href="#DejaVuSans-6e" x="29.492188"/>
      <use xlink:href="#DejaVuSans-74" x="92.871094"/>
      <use xlink:href="#DejaVuSans-65" x="132.080078"/>
      <use xlink:href="#DejaVuSans-6e" x="193.603516"/>
      <use xlink:href="#DejaVuSans-73" x="256.982422"/>
      <use xlink:href="#DejaVuSans-69" x="309.082031"/>
      <use xlink:href="#DejaVuSans-74" x="336.865234"/>
      <use xlink:href="#DejaVuSans-79" x="376.074219"/>
     </g>
    </g>
   </g>
   <g id="line2d_79">
    <path d="M 59.184769 63.353106 
L 61.414811 62.346737 
L 63.644852 61.156613 
L 66.989915 58.765656 
L 71.449999 56.052939 
L 72.56502 55.452128 
L 73.680041 49.602715 
L 75.910083 48.439831 
L 77.025104 47.74315 
L 78.140125 47.331572 
L 80.370167 46.184377 
L 81.485188 45.956253 
L 82.600209 45.476038 
L 84.830251 44.935284 
L 87.060293 45.368047 
L 88.175314 46.264326 
L 89.290335 47.751365 
L 90.405356 50.19463 
L 91.520377 53.8193 
L 92.635398 60.015731 
L 93.750419 63.371504 
L 95.980461 72.498907 
L 97.095482 74.312586 
L 98.210503 74.250719 
L 99.325524 75.49645 
L 100.440545 78.881021 
L 101.555566 83.969947 
L 102.670587 88.339673 
L 103.785608 89.96751 
L 104.900629 89.043022 
L 106.01565 87.90114 
L 107.130671 87.978869 
L 108.245692 89.577028 
L 109.360713 92.842878 
L 110.475734 98.684016 
L 111.590755 101.284364 
L 112.705776 102.574249 
L 113.820797 101.966078 
L 114.935818 100.591146 
L 116.050839 99.76415 
L 117.16586 99.91819 
L 118.280881 101.307933 
L 119.395902 103.753889 
L 121.625944 109.348966 
L 122.740965 110.74995 
L 123.855986 110.285217 
L 126.086028 107.466595 
L 127.201049 106.912822 
L 128.31607 107.494864 
L 129.431091 108.97589 
L 130.546112 111.58459 
L 131.661133 114.48037 
L 132.776154 116.805382 
L 133.891175 117.944349 
L 135.006196 117.549794 
L 137.236238 114.819255 
L 138.351259 113.865793 
L 139.46628 113.896571 
L 140.581301 115.10061 
L 141.696322 117.126518 
L 145.041385 124.761951 
L 146.156406 125.260193 
L 147.271427 124.475304 
L 148.386448 122.750257 
L 149.501469 121.363093 
L 150.61649 120.274588 
L 151.731511 120.235507 
L 152.846532 121.180478 
L 153.961553 123.309849 
L 157.306615 131.609221 
L 158.421636 132.718703 
L 159.536657 132.012959 
L 160.651678 130.326093 
L 161.766699 128.284097 
L 162.88172 126.791861 
L 163.996741 126.259379 
L 165.111762 126.847327 
L 166.226783 128.283271 
L 168.456825 134.316961 
L 169.571846 137.578176 
L 170.686867 139.794689 
L 171.801888 139.932483 
L 172.916909 138.566292 
L 175.146951 134.163184 
L 176.261972 132.94669 
L 177.376993 132.531929 
L 178.492014 133.32605 
L 179.607035 135.562676 
L 180.722056 138.671081 
L 181.837077 142.282609 
L 182.952098 145.373946 
L 184.067119 147.391441 
L 185.18214 147.032593 
L 186.297161 145.21917 
L 187.412182 142.574084 
L 188.527203 140.366783 
L 189.642224 139.258752 
L 190.757245 139.210791 
L 191.872266 140.06547 
L 192.987287 142.599852 
L 196.33235 153.225518 
L 197.447371 155.003726 
L 198.562392 154.346425 
L 199.677413 152.36355 
L 200.792434 149.594279 
L 201.907455 147.406651 
L 203.022476 146.216263 
L 204.137497 145.895894 
L 205.252518 147.508513 
L 206.367539 149.964956 
L 208.597581 157.444274 
L 209.712602 161.331889 
L 210.827623 163.341713 
L 211.942644 163.052509 
L 213.057665 160.779901 
L 214.172686 157.633895 
L 215.287707 155.234424 
L 216.402728 153.873129 
L 217.517749 153.883785 
L 218.63277 154.973174 
L 219.747791 157.172978 
L 220.862812 160.918679 
L 223.092854 169.527001 
L 224.207875 171.469729 
L 225.322896 171.710924 
L 226.437917 169.294792 
L 227.552938 166.405414 
L 228.667959 163.861703 
L 229.78298 161.896405 
L 230.898001 161.591455 
L 232.013022 162.563546 
L 233.128043 164.639415 
L 234.243064 167.797761 
L 236.473106 176.874246 
L 237.588127 180.407946 
L 238.703148 180.768081 
L 239.818169 179.274421 
L 242.048211 172.70217 
L 243.163232 170.622383 
L 244.278253 169.91603 
L 245.393274 170.617886 
L 246.508295 172.280873 
L 247.623316 175.583919 
L 250.968378 188.462967 
L 252.083399 190.418776 
L 253.19842 189.519956 
L 256.543483 180.440408 
L 257.658504 178.624634 
L 258.773525 178.750098 
L 259.888546 179.878884 
L 261.003567 182.568401 
L 262.118588 186.753895 
L 263.233609 191.785631 
L 264.34863 196.091689 
L 265.463651 199.620514 
L 266.578672 199.763515 
L 267.693693 196.910571 
L 268.808714 193.650951 
L 269.923735 189.892432 
L 271.038756 188.046281 
L 272.153777 187.175101 
L 273.268798 187.865176 
L 274.383819 190.234783 
L 275.49884 193.18434 
L 276.613861 197.765928 
L 278.843903 207.927131 
L 279.958924 209.449643 
L 281.073945 208.222131 
L 283.303987 200.925749 
L 284.419008 197.790583 
L 285.534029 196.256112 
L 286.64905 196.273202 
L 287.764071 197.65537 
L 288.879092 200.566071 
L 289.994113 204.586409 
L 291.109134 209.427021 
L 292.224155 215.275299 
L 293.339176 218.235951 
L 294.454197 217.242755 
L 295.569218 214.865834 
L 296.684239 210.3771 
L 297.79926 206.849674 
L 298.914281 205.485741 
L 300.029302 203.887611 
L 301.144323 205.075823 
L 302.259344 206.889255 
L 303.374365 211.289248 
L 306.719428 226.185026 
L 307.834449 228.329208 
L 308.94947 225.730578 
L 310.064491 221.313194 
L 312.294533 214.362326 
L 313.409554 211.819631 
L 314.524575 212.89936 
L 315.639596 212.737509 
L 317.869638 221.334196 
L 318.984659 227.645852 
L 320.09968 232.426839 
L 321.214701 236.63785 
L 322.329722 236.086438 
L 323.444743 231.512955 
L 324.559764 227.910364 
L 325.674785 222.819052 
L 326.789806 220.918461 
L 327.904827 219.916867 
L 329.019848 219.473107 
L 330.134869 222.149778 
L 332.364911 230.538517 
L 334.594953 241.732898 
L 335.709974 246.386824 
L 336.824995 244.332294 
L 339.055037 233.74391 
L 340.170058 231.054382 
L 341.285079 228.029105 
L 342.4001 228.359478 
L 343.515121 228.148584 
L 344.630141 232.166538 
L 345.745162 234.479557 
L 346.860183 240.38351 
L 347.975204 248.001743 
L 349.090225 251.912109 
L 350.205246 250.422508 
L 351.320267 249.308792 
L 352.435288 243.05365 
L 353.550309 238.754889 
L 354.66533 235.287912 
L 355.780351 235.028948 
L 356.895372 233.38639 
L 359.125414 239.497763 
L 361.355456 250.711329 
L 362.470477 256.961463 
L 363.585498 259.240426 
L 364.700519 257.925418 
L 365.81554 254.213037 
L 366.930561 247.339394 
L 368.045582 245.186044 
L 369.160603 240.958589 
L 370.275624 240.158214 
L 371.390645 244.055941 
L 372.505666 244.262832 
L 373.620687 248.001743 
L 374.735708 250.808576 
L 375.850729 258.498781 
L 376.96575 263.831037 
L 378.080771 267.409724 
L 379.195792 263.831037 
L 380.310813 258.940323 
L 381.425834 252.435471 
L 382.540855 249.218833 
L 383.655876 245.553287 
L 384.770897 246.464425 
L 385.885918 246.079518 
L 387.000939 252.224412 
L 388.11596 255.538129 
L 389.230981 265.224846 
L 390.346002 271.522697 
L 391.461023 271.238155 
L 392.576044 277.143774 
L 393.691065 270.408981 
L 394.806086 262.352906 
L 395.921107 257.096244 
L 397.036128 253.527028 
L 398.151149 255.915969 
L 399.26617 254.096987 
L 400.381191 253.752986 
L 401.496212 256.172055 
L 402.611233 261.146738 
L 403.726254 272.104748 
L 404.841275 274.293187 
L 405.956296 278.332166 
L 407.071317 275.665643 
L 408.186338 272.704991 
L 409.301359 265.432482 
L 410.41638 261.483698 
L 411.531401 262.352906 
L 412.646422 255.290304 
L 413.761443 258.498781 
L 414.876464 263.450703 
L 417.106506 272.104748 
L 418.221527 280.492443 
L 419.336548 285.715262 
L 420.451569 283.453095 
L 421.56659 275.665643 
L 422.681611 276.024648 
L 423.796632 270.957767 
L 426.026674 262.893962 
L 427.141695 266.952411 
L 428.256716 262.175889 
L 430.486758 271.238155 
L 432.7168 281.429518 
L 433.831821 290.456511 
L 436.061863 281.915777 
L 437.176884 280.492443 
L 438.291905 273.964867 
L 439.406925 269.356322 
L 440.521946 266.069211 
L 441.636967 267.409724 
L 442.751988 272.704991 
L 443.867009 279.59897 
L 444.98203 274.967158 
L 446.097051 286.325034 
L 447.212072 292.911706 
L 448.327093 292.911706 
L 449.442114 291.240547 
L 450.557135 287.605924 
L 451.672156 281.915777 
L 452.787177 271.522697 
L 453.902198 273.964867 
L 455.017219 273.964867 
L 456.13224 274.967158 
L 457.247261 278.332166 
L 458.362282 283.994151 
L 459.477303 285.715262 
L 460.592324 291.240547 
L 461.707345 303.015966 
L 462.822366 296.765832 
L 463.937387 292.057956 
L 465.052408 288.279895 
L 466.167429 282.926864 
L 467.28245 280.955266 
L 468.397471 278.332166 
L 469.512492 277.531791 
L 470.627513 275.313226 
L 471.742534 282.926864 
L 472.857555 283.453095 
L 473.972576 295.727405 
L 475.087597 297.863629 
L 476.202618 296.765832 
L 477.317639 300.26754 
L 477.317639 300.26754 
" clip-path="url(#pa2cc385067)" style="fill: none; stroke: #1f77b4; stroke-width: 1.5; stroke-linecap: square"/>
   </g>
   <g id="patch_3">
    <path d="M 38.278125 315.92 
L 38.278125 32.03125 
" style="fill: none; stroke: #808080; stroke-width: 0.8; stroke-linejoin: miter; stroke-linecap: square"/>
   </g>
   <g id="patch_4">
    <path d="M 498.224283 315.92 
L 498.224283 32.03125 
" style="fill: none; stroke: #808080; stroke-width: 0.8; stroke-linejoin: miter; stroke-linecap: square"/>
   </g>
   <g id="patch_5">
    <path d="M 38.278125 315.92 
L 498.224283 315.92 
" style="fill: none; stroke: #808080; stroke-width: 0.8; stroke-linejoin: miter; stroke-linecap: square"/>
   </g>
   <g id="patch_6">
    <path d="M 38.278125 32.03125 
L 498.224283 32.03125 
" style="fill: none; stroke: #808080; stroke-width: 0.8; stroke-linejoin: miter; stroke-linecap: square"/>
   </g>
   <g id="text_17">
    <g id="patch_7">
     <path d="M 99.37892 58.221015 
L 231.73892 58.221015 
Q 237.73892 58.221015 237.73892 52.221015 
L 237.73892 40.607265 
Q 237.73892 34.607265 231.73892 34.607265 
L 99.37892 34.607265 
Q 93.37892 34.607265 93.37892 40.607265 
L 93.37892 52.221015 
Q 93.37892 58.221015 99.37892 58.221015 
z
" style="fill: #ffffff; fill-opacity: 0.7; stroke: #808080; stroke-linejoin: miter"/>
    </g>
    <!-- $\theta_c(Y3Fe5O12) = $0.617 -->
    <g transform="translate(99.37892 49.72539) scale(0.12 -0.12)">
     <defs>
      <path id="DejaVuSans-Oblique-63" d="M 3431 3366 
L 3316 2797 
Q 3109 2947 2876 3022 
Q 2644 3097 2394 3097 
Q 2119 3097 1870 3000 
Q 1622 2903 1453 2725 
Q 1184 2453 1037 2087 
Q 891 1722 891 1331 
Q 891 859 1127 628 
Q 1363 397 1844 397 
Q 2081 397 2348 469 
Q 2616 541 2906 684 
L 2797 116 
Q 2547 13 2283 -39 
Q 2019 -91 1741 -91 
Q 1044 -91 669 257 
Q 294 606 294 1253 
Q 294 1797 489 2255 
Q 684 2713 1069 3078 
Q 1331 3328 1684 3456 
Q 2038 3584 2456 3584 
Q 2700 3584 2940 3529 
Q 3181 3475 3431 3366 
z
" transform="scale(0.015625)"/>
      <path id="DejaVuSans-28" d="M 1984 4856 
Q 1566 4138 1362 3434 
Q 1159 2731 1159 2009 
Q 1159 1288 1364 580 
Q 1569 -128 1984 -844 
L 1484 -844 
Q 1016 -109 783 600 
Q 550 1309 550 2009 
Q 550 2706 781 3412 
Q 1013 4119 1484 4856 
L 1984 4856 
z
" transform="scale(0.015625)"/>
      <path id="DejaVuSans-Oblique-59" d="M 403 4666 
L 1081 4666 
L 1953 2747 
L 3616 4666 
L 4325 4666 
L 2209 2222 
L 1778 0 
L 1147 0 
L 1575 2222 
L 403 4666 
z
" transform="scale(0.015625)"/>
      <path id="DejaVuSans-Oblique-46" d="M 1081 4666 
L 3756 4666 
L 3653 4134 
L 1606 4134 
L 1338 2759 
L 3188 2759 
L 3084 2228 
L 1234 2228 
L 800 0 
L 172 0 
L 1081 4666 
z
" transform="scale(0.015625)"/>
      <path id="DejaVuSans-Oblique-65" d="M 3078 2063 
Q 3088 2113 3092 2166 
Q 3097 2219 3097 2272 
Q 3097 2653 2873 2875 
Q 2650 3097 2266 3097 
Q 1838 3097 1509 2826 
Q 1181 2556 1013 2059 
L 3078 2063 
z
M 3578 1613 
L 903 1613 
Q 884 1494 878 1425 
Q 872 1356 872 1306 
Q 872 872 1139 634 
Q 1406 397 1894 397 
Q 2269 397 2603 481 
Q 2938 566 3225 728 
L 3116 159 
Q 2806 34 2476 -28 
Q 2147 -91 1806 -91 
Q 1078 -91 686 257 
Q 294 606 294 1247 
Q 294 1794 489 2264 
Q 684 2734 1063 3103 
Q 1306 3334 1642 3459 
Q 1978 3584 2356 3584 
Q 2950 3584 3301 3228 
Q 3653 2872 3653 2272 
Q 3653 2128 3634 1964 
Q 3616 1800 3578 1613 
z
" transform="scale(0.015625)"/>
      <path id="DejaVuSans-Oblique-4f" d="M 2919 4238 
Q 2400 4238 2003 3986 
Q 1606 3734 1313 3219 
Q 1125 2891 1026 2522 
Q 928 2153 928 1778 
Q 928 1128 1239 775 
Q 1550 422 2119 422 
Q 2631 422 3032 676 
Q 3434 931 3719 1434 
Q 3909 1772 4009 2142 
Q 4109 2513 4109 2881 
Q 4109 3528 3796 3883 
Q 3484 4238 2919 4238 
z
M 2100 -91 
Q 1241 -91 748 418 
Q 256 928 256 1813 
Q 256 2319 448 2847 
Q 641 3375 978 3788 
Q 1375 4272 1862 4511 
Q 2350 4750 2938 4750 
Q 3794 4750 4287 4245 
Q 4781 3741 4781 2869 
Q 4781 2331 4593 1812 
Q 4406 1294 4056 872 
Q 3656 384 3173 146 
Q 2691 -91 2100 -91 
z
" transform="scale(0.015625)"/>
      <path id="DejaVuSans-29" d="M 513 4856 
L 1013 4856 
Q 1481 4119 1714 3412 
Q 1947 2706 1947 2009 
Q 1947 1309 1714 600 
Q 1481 -109 1013 -844 
L 513 -844 
Q 928 -128 1133 580 
Q 1338 1288 1338 2009 
Q 1338 2731 1133 3434 
Q 928 4138 513 4856 
z
" transform="scale(0.015625)"/>
      <path id="DejaVuSans-3d" d="M 678 2906 
L 4684 2906 
L 4684 2381 
L 678 2381 
L 678 2906 
z
M 678 1631 
L 4684 1631 
L 4684 1100 
L 678 1100 
L 678 1631 
z
" transform="scale(0.015625)"/>
      <path id="DejaVuSans-2e" d="M 684 794 
L 1344 794 
L 1344 0 
L 684 0 
L 684 794 
z
" transform="scale(0.015625)"/>
      <path id="DejaVuSans-37" d="M 525 4666 
L 3525 4666 
L 3525 4397 
L 1831 0 
L 1172 0 
L 2766 4134 
L 525 4134 
L 525 4666 
z
" transform="scale(0.015625)"/>
     </defs>
     <use xlink:href="#DejaVuSans-Oblique-3b8" transform="translate(0 0.234375)"/>
     <use xlink:href="#DejaVuSans-Oblique-63" transform="translate(61.181641 -16.171875) scale(0.7)"/>
     <use xlink:href="#DejaVuSans-28" transform="translate(102.402344 0.234375)"/>
     <use xlink:href="#DejaVuSans-Oblique-59" transform="translate(141.416016 0.234375)"/>
     <use xlink:href="#DejaVuSans-33" transform="translate(202.5 0.234375)"/>
     <use xlink:href="#DejaVuSans-Oblique-46" transform="translate(266.123047 0.234375)"/>
     <use xlink:href="#DejaVuSans-Oblique-65" transform="translate(323.642578 0.234375)"/>
     <use xlink:href="#DejaVuSans-35" transform="translate(385.166016 0.234375)"/>
     <use xlink:href="#DejaVuSans-Oblique-4f" transform="translate(448.789062 0.234375)"/>
     <use xlink:href="#DejaVuSans-31" transform="translate(527.5 0.234375)"/>
     <use xlink:href="#DejaVuSans-32" transform="translate(591.123047 0.234375)"/>
     <use xlink:href="#DejaVuSans-29" transform="translate(654.746094 0.234375)"/>
     <use xlink:href="#DejaVuSans-3d" transform="translate(713.242188 0.234375)"/>
     <use xlink:href="#DejaVuSans-30" transform="translate(816.513672 0.234375)"/>
     <use xlink:href="#DejaVuSans-2e" transform="translate(880.136719 0.234375)"/>
     <use xlink:href="#DejaVuSans-36" transform="translate(911.923828 0.234375)"/>
     <use xlink:href="#DejaVuSans-31" transform="translate(975.546875 0.234375)"/>
     <use xlink:href="#DejaVuSans-37" transform="translate(1039.169922 0.234375)"/>
    </g>
   </g>
   <g id="text_18">
    <!-- XRR data -->
    <g style="fill: #808080" transform="translate(240.381204 26.03125) scale(0.12 -0.12)">
     <defs>
      <path id="DejaVuSans-58" d="M 403 4666 
L 1081 4666 
L 2241 2931 
L 3406 4666 
L 4084 4666 
L 2584 2425 
L 4184 0 
L 3506 0 
L 2194 1984 
L 872 0 
L 191 0 
L 1856 2491 
L 403 4666 
z
" transform="scale(0.015625)"/>
      <path id="DejaVuSans-52" d="M 2841 2188 
Q 3044 2119 3236 1894 
Q 3428 1669 3622 1275 
L 4263 0 
L 3584 0 
L 2988 1197 
Q 2756 1666 2539 1819 
Q 2322 1972 1947 1972 
L 1259 1972 
L 1259 0 
L 628 0 
L 628 4666 
L 2053 4666 
Q 2853 4666 3247 4331 
Q 3641 3997 3641 3322 
Q 3641 2881 3436 2590 
Q 3231 2300 2841 2188 
z
M 1259 4147 
L 1259 2491 
L 2053 2491 
Q 2509 2491 2742 2702 
Q 2975 2913 2975 3322 
Q 2975 3731 2742 3939 
Q 2509 4147 2053 4147 
L 1259 4147 
z
" transform="scale(0.015625)"/>
      <path id="DejaVuSans-20" transform="scale(0.015625)"/>
      <path id="DejaVuSans-64" d="M 2906 2969 
L 2906 4863 
L 3481 4863 
L 3481 0 
L 2906 0 
L 2906 525 
Q 2725 213 2448 61 
Q 2172 -91 1784 -91 
Q 1150 -91 751 415 
Q 353 922 353 1747 
Q 353 2572 751 3078 
Q 1150 3584 1784 3584 
Q 2172 3584 2448 3432 
Q 2725 3281 2906 2969 
z
M 947 1747 
Q 947 1113 1208 752 
Q 1469 391 1925 391 
Q 2381 391 2643 752 
Q 2906 1113 2906 1747 
Q 2906 2381 2643 2742 
Q 2381 3103 1925 3103 
Q 1469 3103 1208 2742 
Q 947 2381 947 1747 
z
" transform="scale(0.015625)"/>
      <path id="DejaVuSans-61" d="M 2194 1759 
Q 1497 1759 1228 1600 
Q 959 1441 959 1056 
Q 959 750 1161 570 
Q 1363 391 1709 391 
Q 2188 391 2477 730 
Q 2766 1069 2766 1631 
L 2766 1759 
L 2194 1759 
z
M 3341 1997 
L 3341 0 
L 2766 0 
L 2766 531 
Q 2569 213 2275 61 
Q 1981 -91 1556 -91 
Q 1019 -91 701 211 
Q 384 513 384 1019 
Q 384 1609 779 1909 
Q 1175 2209 1959 2209 
L 2766 2209 
L 2766 2266 
Q 2766 2663 2505 2880 
Q 2244 3097 1772 3097 
Q 1472 3097 1187 3025 
Q 903 2953 641 2809 
L 641 3341 
Q 956 3463 1253 3523 
Q 1550 3584 1831 3584 
Q 2591 3584 2966 3190 
Q 3341 2797 3341 1997 
z
" transform="scale(0.015625)"/>
     </defs>
     <use xlink:href="#DejaVuSans-58"/>
     <use xlink:href="#DejaVuSans-52" x="68.505859"/>
     <use xlink:href="#DejaVuSans-52" x="137.988281"/>
     <use xlink:href="#DejaVuSans-20" x="207.470703"/>
     <use xlink:href="#DejaVuSans-64" x="239.257812"/>
     <use xlink:href="#DejaVuSans-61" x="302.734375"/>
     <use xlink:href="#DejaVuSans-74" x="364.013672"/>
     <use xlink:href="#DejaVuSans-61" x="403.222656"/>
    </g>
   </g>
   <g id="legend_1">
    <g id="patch_8">
     <path d="M 393.325845 69.3875 
L 491.224283 69.3875 
Q 493.224283 69.3875 493.224283 67.3875 
L 493.224283 39.03125 
Q 493.224283 37.03125 491.224283 37.03125 
L 393.325845 37.03125 
Q 391.325845 37.03125 391.325845 39.03125 
L 391.325845 67.3875 
Q 391.325845 69.3875 393.325845 69.3875 
z
" style="fill: #ffffff; opacity: 0.8; stroke: #cccccc; stroke-linejoin: miter"/>
    </g>
    <g id="line2d_80">
     <path d="M 395.325845 45.129687 
L 405.325845 45.129687 
L 415.325845 45.129687 
" style="fill: none; stroke: #1f77b4; stroke-width: 1.5; stroke-linecap: square"/>
    </g>
    <g id="text_19">
     <!-- RawData0 -->
     <g style="fill: #1f77b4" transform="translate(423.325845 48.629687) scale(0.1 -0.1)">
      <defs>
       <path id="DejaVuSans-77" d="M 269 3500 
L 844 3500 
L 1563 769 
L 2278 3500 
L 2956 3500 
L 3675 769 
L 4391 3500 
L 4966 3500 
L 4050 0 
L 3372 0 
L 2619 2869 
L 1863 0 
L 1184 0 
L 269 3500 
z
" transform="scale(0.015625)"/>
       <path id="DejaVuSans-44" d="M 1259 4147 
L 1259 519 
L 2022 519 
Q 2988 519 3436 956 
Q 3884 1394 3884 2338 
Q 3884 3275 3436 3711 
Q 2988 4147 2022 4147 
L 1259 4147 
z
M 628 4666 
L 1925 4666 
Q 3281 4666 3915 4102 
Q 4550 3538 4550 2338 
Q 4550 1131 3912 565 
Q 3275 0 1925 0 
L 628 0 
L 628 4666 
z
" transform="scale(0.015625)"/>
      </defs>
      <use xlink:href="#DejaVuSans-52"/>
      <use xlink:href="#DejaVuSans-61" x="67.232422"/>
      <use xlink:href="#DejaVuSans-77" x="128.511719"/>
      <use xlink:href="#DejaVuSans-44" x="210.298828"/>
      <use xlink:href="#DejaVuSans-61" x="287.300781"/>
      <use xlink:href="#DejaVuSans-74" x="348.580078"/>
      <use xlink:href="#DejaVuSans-61" x="387.789062"/>
      <use xlink:href="#DejaVuSans-30" x="449.068359"/>
     </g>
    </g>
    <g id="PathCollection_2">
     <g>
      <use xlink:href="#mdb6e14b800" x="405.325845" y="60.682812" style="fill: #ff7f0e; stroke: #ff7f0e"/>
     </g>
    </g>
    <g id="text_20">
     <!-- Critical angle -->
     <g style="fill: #ff7f0e" transform="translate(423.325845 63.307812) scale(0.1 -0.1)">
      <defs>
       <path id="DejaVuSans-43" d="M 4122 4306 
L 4122 3641 
Q 3803 3938 3442 4084 
Q 3081 4231 2675 4231 
Q 1875 4231 1450 3742 
Q 1025 3253 1025 2328 
Q 1025 1406 1450 917 
Q 1875 428 2675 428 
Q 3081 428 3442 575 
Q 3803 722 4122 1019 
L 4122 359 
Q 3791 134 3420 21 
Q 3050 -91 2638 -91 
Q 1578 -91 968 557 
Q 359 1206 359 2328 
Q 359 3453 968 4101 
Q 1578 4750 2638 4750 
Q 3056 4750 3426 4639 
Q 3797 4528 4122 4306 
z
" transform="scale(0.015625)"/>
       <path id="DejaVuSans-72" d="M 2631 2963 
Q 2534 3019 2420 3045 
Q 2306 3072 2169 3072 
Q 1681 3072 1420 2755 
Q 1159 2438 1159 1844 
L 1159 0 
L 581 0 
L 581 3500 
L 1159 3500 
L 1159 2956 
Q 1341 3275 1631 3429 
Q 1922 3584 2338 3584 
Q 2397 3584 2469 3576 
Q 2541 3569 2628 3553 
L 2631 2963 
z
" transform="scale(0.015625)"/>
       <path id="DejaVuSans-63" d="M 3122 3366 
L 3122 2828 
Q 2878 2963 2633 3030 
Q 2388 3097 2138 3097 
Q 1578 3097 1268 2742 
Q 959 2388 959 1747 
Q 959 1106 1268 751 
Q 1578 397 2138 397 
Q 2388 397 2633 464 
Q 2878 531 3122 666 
L 3122 134 
Q 2881 22 2623 -34 
Q 2366 -91 2075 -91 
Q 1284 -91 818 406 
Q 353 903 353 1747 
Q 353 2603 823 3093 
Q 1294 3584 2113 3584 
Q 2378 3584 2631 3529 
Q 2884 3475 3122 3366 
z
" transform="scale(0.015625)"/>
       <path id="DejaVuSans-6c" d="M 603 4863 
L 1178 4863 
L 1178 0 
L 603 0 
L 603 4863 
z
" transform="scale(0.015625)"/>
       <path id="DejaVuSans-67" d="M 2906 1791 
Q 2906 2416 2648 2759 
Q 2391 3103 1925 3103 
Q 1463 3103 1205 2759 
Q 947 2416 947 1791 
Q 947 1169 1205 825 
Q 1463 481 1925 481 
Q 2391 481 2648 825 
Q 2906 1169 2906 1791 
z
M 3481 434 
Q 3481 -459 3084 -895 
Q 2688 -1331 1869 -1331 
Q 1566 -1331 1297 -1286 
Q 1028 -1241 775 -1147 
L 775 -588 
Q 1028 -725 1275 -790 
Q 1522 -856 1778 -856 
Q 2344 -856 2625 -561 
Q 2906 -266 2906 331 
L 2906 616 
Q 2728 306 2450 153 
Q 2172 0 1784 0 
Q 1141 0 747 490 
Q 353 981 353 1791 
Q 353 2603 747 3093 
Q 1141 3584 1784 3584 
Q 2172 3584 2450 3431 
Q 2728 3278 2906 2969 
L 2906 3500 
L 3481 3500 
L 3481 434 
z
" transform="scale(0.015625)"/>
      </defs>
      <use xlink:href="#DejaVuSans-43"/>
      <use xlink:href="#DejaVuSans-72" x="69.824219"/>
      <use xlink:href="#DejaVuSans-69" x="110.9375"/>
      <use xlink:href="#DejaVuSans-74" x="138.720703"/>
      <use xlink:href="#DejaVuSans-69" x="177.929688"/>
      <use xlink:href="#DejaVuSans-63" x="205.712891"/>
      <use xlink:href="#DejaVuSans-61" x="260.693359"/>
      <use xlink:href="#DejaVuSans-6c" x="321.972656"/>
      <use xlink:href="#DejaVuSans-20" x="349.755859"/>
      <use xlink:href="#DejaVuSans-61" x="381.542969"/>
      <use xlink:href="#DejaVuSans-6e" x="442.822266"/>
      <use xlink:href="#DejaVuSans-67" x="506.201172"/>
      <use xlink:href="#DejaVuSans-6c" x="569.677734"/>
      <use xlink:href="#DejaVuSans-65" x="597.460938"/>
     </g>
    </g>
   </g>
  </g>
  <g id="axes_2">
   <g id="patch_9">
    <path d="M 536.994283 315.92 
L 996.94044 315.92 
L 996.94044 32.03125 
L 536.994283 32.03125 
L 536.994283 315.92 
z
" style="fill: none"/>
   </g>
   <g id="matplotlib.axis_3">
    <g id="xtick_8">
     <g id="line2d_81">
      <path d="M 536.994283 315.92 
L 536.994283 32.03125 
" clip-path="url(#p6599e3ff90)" style="fill: none; stroke: #b0b0b0; stroke-width: 0.8; stroke-linecap: square"/>
     </g>
     <g id="line2d_82">
      <g>
       <use xlink:href="#m0b6bae86b8" x="536.994283" y="315.92" style="fill: #808080; stroke: #808080; stroke-width: 0.8"/>
      </g>
     </g>
     <g id="text_21">
      <!-- 0 -->
      <g style="fill: #808080" transform="translate(533.813033 330.518437) scale(0.1 -0.1)">
       <use xlink:href="#DejaVuSans-30"/>
      </g>
     </g>
    </g>
    <g id="xtick_9">
     <g id="line2d_83">
      <path d="M 602.859364 315.92 
L 602.859364 32.03125 
" clip-path="url(#p6599e3ff90)" style="fill: none; stroke: #b0b0b0; stroke-width: 0.8; stroke-linecap: square"/>
     </g>
     <g id="line2d_84">
      <g>
       <use xlink:href="#m0b6bae86b8" x="602.859364" y="315.92" style="fill: #808080; stroke: #808080; stroke-width: 0.8"/>
      </g>
     </g>
     <g id="text_22">
      <!-- 20 -->
      <g style="fill: #808080" transform="translate(596.496864 330.518437) scale(0.1 -0.1)">
       <use xlink:href="#DejaVuSans-32"/>
       <use xlink:href="#DejaVuSans-30" x="63.623047"/>
      </g>
     </g>
    </g>
    <g id="xtick_10">
     <g id="line2d_85">
      <path d="M 668.724445 315.92 
L 668.724445 32.03125 
" clip-path="url(#p6599e3ff90)" style="fill: none; stroke: #b0b0b0; stroke-width: 0.8; stroke-linecap: square"/>
     </g>
     <g id="line2d_86">
      <g>
       <use xlink:href="#m0b6bae86b8" x="668.724445" y="315.92" style="fill: #808080; stroke: #808080; stroke-width: 0.8"/>
      </g>
     </g>
     <g id="text_23">
      <!-- 40 -->
      <g style="fill: #808080" transform="translate(662.361945 330.518437) scale(0.1 -0.1)">
       <use xlink:href="#DejaVuSans-34"/>
       <use xlink:href="#DejaVuSans-30" x="63.623047"/>
      </g>
     </g>
    </g>
    <g id="xtick_11">
     <g id="line2d_87">
      <path d="M 734.589527 315.92 
L 734.589527 32.03125 
" clip-path="url(#p6599e3ff90)" style="fill: none; stroke: #b0b0b0; stroke-width: 0.8; stroke-linecap: square"/>
     </g>
     <g id="line2d_88">
      <g>
       <use xlink:href="#m0b6bae86b8" x="734.589527" y="315.92" style="fill: #808080; stroke: #808080; stroke-width: 0.8"/>
      </g>
     </g>
     <g id="text_24">
      <!-- 60 -->
      <g style="fill: #808080" transform="translate(728.227027 330.518437) scale(0.1 -0.1)">
       <use xlink:href="#DejaVuSans-36"/>
       <use xlink:href="#DejaVuSans-30" x="63.623047"/>
      </g>
     </g>
    </g>
    <g id="xtick_12">
     <g id="line2d_89">
      <path d="M 800.454608 315.92 
L 800.454608 32.03125 
" clip-path="url(#p6599e3ff90)" style="fill: none; stroke: #b0b0b0; stroke-width: 0.8; stroke-linecap: square"/>
     </g>
     <g id="line2d_90">
      <g>
       <use xlink:href="#m0b6bae86b8" x="800.454608" y="315.92" style="fill: #808080; stroke: #808080; stroke-width: 0.8"/>
      </g>
     </g>
     <g id="text_25">
      <!-- 80 -->
      <g style="fill: #808080" transform="translate(794.092108 330.518437) scale(0.1 -0.1)">
       <defs>
        <path id="DejaVuSans-38" d="M 2034 2216 
Q 1584 2216 1326 1975 
Q 1069 1734 1069 1313 
Q 1069 891 1326 650 
Q 1584 409 2034 409 
Q 2484 409 2743 651 
Q 3003 894 3003 1313 
Q 3003 1734 2745 1975 
Q 2488 2216 2034 2216 
z
M 1403 2484 
Q 997 2584 770 2862 
Q 544 3141 544 3541 
Q 544 4100 942 4425 
Q 1341 4750 2034 4750 
Q 2731 4750 3128 4425 
Q 3525 4100 3525 3541 
Q 3525 3141 3298 2862 
Q 3072 2584 2669 2484 
Q 3125 2378 3379 2068 
Q 3634 1759 3634 1313 
Q 3634 634 3220 271 
Q 2806 -91 2034 -91 
Q 1263 -91 848 271 
Q 434 634 434 1313 
Q 434 1759 690 2068 
Q 947 2378 1403 2484 
z
M 1172 3481 
Q 1172 3119 1398 2916 
Q 1625 2713 2034 2713 
Q 2441 2713 2670 2916 
Q 2900 3119 2900 3481 
Q 2900 3844 2670 4047 
Q 2441 4250 2034 4250 
Q 1625 4250 1398 4047 
Q 1172 3844 1172 3481 
z
" transform="scale(0.015625)"/>
       </defs>
       <use xlink:href="#DejaVuSans-38"/>
       <use xlink:href="#DejaVuSans-30" x="63.623047"/>
      </g>
     </g>
    </g>
    <g id="xtick_13">
     <g id="line2d_91">
      <path d="M 866.31969 315.92 
L 866.31969 32.03125 
" clip-path="url(#p6599e3ff90)" style="fill: none; stroke: #b0b0b0; stroke-width: 0.8; stroke-linecap: square"/>
     </g>
     <g id="line2d_92">
      <g>
       <use xlink:href="#m0b6bae86b8" x="866.31969" y="315.92" style="fill: #808080; stroke: #808080; stroke-width: 0.8"/>
      </g>
     </g>
     <g id="text_26">
      <!-- 100 -->
      <g style="fill: #808080" transform="translate(856.77594 330.518437) scale(0.1 -0.1)">
       <use xlink:href="#DejaVuSans-31"/>
       <use xlink:href="#DejaVuSans-30" x="63.623047"/>
       <use xlink:href="#DejaVuSans-30" x="127.246094"/>
      </g>
     </g>
    </g>
    <g id="xtick_14">
     <g id="line2d_93">
      <path d="M 932.184771 315.92 
L 932.184771 32.03125 
" clip-path="url(#p6599e3ff90)" style="fill: none; stroke: #b0b0b0; stroke-width: 0.8; stroke-linecap: square"/>
     </g>
     <g id="line2d_94">
      <g>
       <use xlink:href="#m0b6bae86b8" x="932.184771" y="315.92" style="fill: #808080; stroke: #808080; stroke-width: 0.8"/>
      </g>
     </g>
     <g id="text_27">
      <!-- 120 -->
      <g style="fill: #808080" transform="translate(922.641021 330.518437) scale(0.1 -0.1)">
       <use xlink:href="#DejaVuSans-31"/>
       <use xlink:href="#DejaVuSans-32" x="63.623047"/>
       <use xlink:href="#DejaVuSans-30" x="127.246094"/>
      </g>
     </g>
    </g>
    <g id="text_28">
     <!-- Thickness [nm] -->
     <g style="fill: #808080" transform="translate(728.726736 344.196562) scale(0.1 -0.1)">
      <defs>
       <path id="DejaVuSans-54" d="M -19 4666 
L 3928 4666 
L 3928 4134 
L 2272 4134 
L 2272 0 
L 1638 0 
L 1638 4134 
L -19 4134 
L -19 4666 
z
" transform="scale(0.015625)"/>
       <path id="DejaVuSans-68" d="M 3513 2113 
L 3513 0 
L 2938 0 
L 2938 2094 
Q 2938 2591 2744 2837 
Q 2550 3084 2163 3084 
Q 1697 3084 1428 2787 
Q 1159 2491 1159 1978 
L 1159 0 
L 581 0 
L 581 4863 
L 1159 4863 
L 1159 2956 
Q 1366 3272 1645 3428 
Q 1925 3584 2291 3584 
Q 2894 3584 3203 3211 
Q 3513 2838 3513 2113 
z
" transform="scale(0.015625)"/>
       <path id="DejaVuSans-6b" d="M 581 4863 
L 1159 4863 
L 1159 1991 
L 2875 3500 
L 3609 3500 
L 1753 1863 
L 3688 0 
L 2938 0 
L 1159 1709 
L 1159 0 
L 581 0 
L 581 4863 
z
" transform="scale(0.015625)"/>
       <path id="DejaVuSans-5b" d="M 550 4863 
L 1875 4863 
L 1875 4416 
L 1125 4416 
L 1125 -397 
L 1875 -397 
L 1875 -844 
L 550 -844 
L 550 4863 
z
" transform="scale(0.015625)"/>
       <path id="DejaVuSans-6d" d="M 3328 2828 
Q 3544 3216 3844 3400 
Q 4144 3584 4550 3584 
Q 5097 3584 5394 3201 
Q 5691 2819 5691 2113 
L 5691 0 
L 5113 0 
L 5113 2094 
Q 5113 2597 4934 2840 
Q 4756 3084 4391 3084 
Q 3944 3084 3684 2787 
Q 3425 2491 3425 1978 
L 3425 0 
L 2847 0 
L 2847 2094 
Q 2847 2600 2669 2842 
Q 2491 3084 2119 3084 
Q 1678 3084 1418 2786 
Q 1159 2488 1159 1978 
L 1159 0 
L 581 0 
L 581 3500 
L 1159 3500 
L 1159 2956 
Q 1356 3278 1631 3431 
Q 1906 3584 2284 3584 
Q 2666 3584 2933 3390 
Q 3200 3197 3328 2828 
z
" transform="scale(0.015625)"/>
       <path id="DejaVuSans-5d" d="M 1947 4863 
L 1947 -844 
L 622 -844 
L 622 -397 
L 1369 -397 
L 1369 4416 
L 622 4416 
L 622 4863 
L 1947 4863 
z
" transform="scale(0.015625)"/>
      </defs>
      <use xlink:href="#DejaVuSans-54"/>
      <use xlink:href="#DejaVuSans-68" x="61.083984"/>
      <use xlink:href="#DejaVuSans-69" x="124.462891"/>
      <use xlink:href="#DejaVuSans-63" x="152.246094"/>
      <use xlink:href="#DejaVuSans-6b" x="207.226562"/>
      <use xlink:href="#DejaVuSans-6e" x="265.136719"/>
      <use xlink:href="#DejaVuSans-65" x="328.515625"/>
      <use xlink:href="#DejaVuSans-73" x="390.039062"/>
      <use xlink:href="#DejaVuSans-73" x="442.138672"/>
      <use xlink:href="#DejaVuSans-20" x="494.238281"/>
      <use xlink:href="#DejaVuSans-5b" x="526.025391"/>
      <use xlink:href="#DejaVuSans-6e" x="565.039062"/>
      <use xlink:href="#DejaVuSans-6d" x="628.417969"/>
      <use xlink:href="#DejaVuSans-5d" x="725.830078"/>
     </g>
    </g>
   </g>
   <g id="matplotlib.axis_4">
    <g id="ytick_58">
     <g id="line2d_95">
      <path d="M 536.994283 315.92 
L 996.94044 315.92 
" clip-path="url(#p6599e3ff90)" style="fill: none; stroke: #b0b0b0; stroke-width: 0.8; stroke-linecap: square"/>
     </g>
     <g id="line2d_96">
      <g>
       <use xlink:href="#m87af5dda4e" x="536.994283" y="315.92" style="fill: #808080; stroke: #808080; stroke-width: 0.8"/>
      </g>
     </g>
     <g id="text_29">
      <!-- 0 -->
      <g style="fill: #808080" transform="translate(523.631783 319.719219) scale(0.1 -0.1)">
       <use xlink:href="#DejaVuSans-30"/>
      </g>
     </g>
    </g>
    <g id="ytick_59">
     <g id="line2d_97">
      <path d="M 536.994283 266.058659 
L 996.94044 266.058659 
" clip-path="url(#p6599e3ff90)" style="fill: none; stroke: #b0b0b0; stroke-width: 0.8; stroke-linecap: square"/>
     </g>
     <g id="line2d_98">
      <g>
       <use xlink:href="#m87af5dda4e" x="536.994283" y="266.058659" style="fill: #808080; stroke: #808080; stroke-width: 0.8"/>
      </g>
     </g>
     <g id="text_30">
      <!-- 2 -->
      <g style="fill: #808080" transform="translate(523.631783 269.857878) scale(0.1 -0.1)">
       <use xlink:href="#DejaVuSans-32"/>
      </g>
     </g>
    </g>
    <g id="ytick_60">
     <g id="line2d_99">
      <path d="M 536.994283 216.197318 
L 996.94044 216.197318 
" clip-path="url(#p6599e3ff90)" style="fill: none; stroke: #b0b0b0; stroke-width: 0.8; stroke-linecap: square"/>
     </g>
     <g id="line2d_100">
      <g>
       <use xlink:href="#m87af5dda4e" x="536.994283" y="216.197318" style="fill: #808080; stroke: #808080; stroke-width: 0.8"/>
      </g>
     </g>
     <g id="text_31">
      <!-- 4 -->
      <g style="fill: #808080" transform="translate(523.631783 219.996537) scale(0.1 -0.1)">
       <use xlink:href="#DejaVuSans-34"/>
      </g>
     </g>
    </g>
    <g id="ytick_61">
     <g id="line2d_101">
      <path d="M 536.994283 166.335977 
L 996.94044 166.335977 
" clip-path="url(#p6599e3ff90)" style="fill: none; stroke: #b0b0b0; stroke-width: 0.8; stroke-linecap: square"/>
     </g>
     <g id="line2d_102">
      <g>
       <use xlink:href="#m87af5dda4e" x="536.994283" y="166.335977" style="fill: #808080; stroke: #808080; stroke-width: 0.8"/>
      </g>
     </g>
     <g id="text_32">
      <!-- 6 -->
      <g style="fill: #808080" transform="translate(523.631783 170.135196) scale(0.1 -0.1)">
       <use xlink:href="#DejaVuSans-36"/>
      </g>
     </g>
    </g>
    <g id="ytick_62">
     <g id="line2d_103">
      <path d="M 536.994283 116.474636 
L 996.94044 116.474636 
" clip-path="url(#p6599e3ff90)" style="fill: none; stroke: #b0b0b0; stroke-width: 0.8; stroke-linecap: square"/>
     </g>
     <g id="line2d_104">
      <g>
       <use xlink:href="#m87af5dda4e" x="536.994283" y="116.474636" style="fill: #808080; stroke: #808080; stroke-width: 0.8"/>
      </g>
     </g>
     <g id="text_33">
      <!-- 8 -->
      <g style="fill: #808080" transform="translate(523.631783 120.273855) scale(0.1 -0.1)">
       <use xlink:href="#DejaVuSans-38"/>
      </g>
     </g>
    </g>
    <g id="ytick_63">
     <g id="line2d_105">
      <path d="M 536.994283 66.613295 
L 996.94044 66.613295 
" clip-path="url(#p6599e3ff90)" style="fill: none; stroke: #b0b0b0; stroke-width: 0.8; stroke-linecap: square"/>
     </g>
     <g id="line2d_106">
      <g>
       <use xlink:href="#m87af5dda4e" x="536.994283" y="66.613295" style="fill: #808080; stroke: #808080; stroke-width: 0.8"/>
      </g>
     </g>
     <g id="text_34">
      <!-- 10 -->
      <g style="fill: #808080" transform="translate(517.269283 70.412514) scale(0.1 -0.1)">
       <use xlink:href="#DejaVuSans-31"/>
       <use xlink:href="#DejaVuSans-30" x="63.623047"/>
      </g>
     </g>
    </g>
    <g id="text_35">
     <!-- Intensity -->
     <g style="fill: #808080" transform="translate(511.189595 195.738125) rotate(-90) scale(0.1 -0.1)">
      <use xlink:href="#DejaVuSans-49"/>
      <use xlink:href="#DejaVuSans-6e" x="29.492188"/>
      <use xlink:href="#DejaVuSans-74" x="92.871094"/>
      <use xlink:href="#DejaVuSans-65" x="132.080078"/>
      <use xlink:href="#DejaVuSans-6e" x="193.603516"/>
      <use xlink:href="#DejaVuSans-73" x="256.982422"/>
      <use xlink:href="#DejaVuSans-69" x="309.082031"/>
      <use xlink:href="#DejaVuSans-74" x="336.865234"/>
      <use xlink:href="#DejaVuSans-79" x="376.074219"/>
     </g>
    </g>
   </g>
   <g id="line2d_107">
    <path d="M 536.994283 32.03125 
L 537.311212 32.46197 
L 537.628141 33.749596 
L 537.945071 35.880602 
L 538.578929 42.57522 
L 539.212788 52.270138 
L 540.163576 71.559301 
L 541.431293 103.480752 
L 544.917515 195.855989 
L 546.185232 222.790421 
L 547.452949 244.875907 
L 548.720667 262.62789 
L 549.988384 276.69194 
L 550.939172 285.138602 
L 551.88996 292.002677 
L 552.840747 297.497682 
L 553.791535 301.85984 
L 554.742323 305.319844 
L 555.693111 308.065361 
L 556.643899 310.22342 
L 557.594687 311.872425 
L 558.545475 313.072465 
L 559.496263 313.896125 
L 560.447051 314.442363 
L 561.714768 314.922421 
L 563.933273 315.493819 
L 566.151778 315.865602 
L 567.419495 315.764156 
L 569.954929 315.590911 
L 576.927374 315.600547 
L 579.779738 315.672323 
L 583.582889 315.460025 
L 590.238404 315.564111 
L 593.090768 315.501319 
L 596.89392 315.516656 
L 600.063213 315.38063 
L 608.620304 315.438221 
L 611.472667 315.439852 
L 617.177395 315.572579 
L 622.248263 315.584299 
L 628.586849 315.888746 
L 629.854567 315.839457 
L 633.340789 315.627311 
L 635.876223 315.713236 
L 639.996304 315.900779 
L 642.531738 315.798051 
L 647.919536 315.483271 
L 662.181355 315.287064 
L 669.153799 315.358463 
L 670.738446 314.908337 
L 672.323092 314.223966 
L 673.590809 313.459528 
L 674.858527 312.422288 
L 676.126244 311.043242 
L 677.393961 309.248263 
L 678.344749 307.554269 
L 679.295537 305.468995 
L 680.246325 302.891231 
L 681.197113 299.735921 
L 682.46483 294.588279 
L 684.049476 286.919941 
L 686.584911 274.273132 
L 687.535698 270.43668 
L 688.486486 267.581741 
L 689.120345 266.341686 
L 689.754204 265.686943 
L 690.071133 265.586696 
L 690.388062 265.638925 
L 690.704991 265.842506 
L 691.33885 266.691671 
L 691.972709 268.095672 
L 692.606567 269.994803 
L 693.557355 273.599216 
L 695.142002 280.838773 
L 697.360507 291.143697 
L 698.628224 296.167403 
L 699.895941 300.338769 
L 701.163658 303.735884 
L 702.431375 306.497864 
L 703.699093 308.725538 
L 704.96681 310.474346 
L 706.234527 311.799871 
L 707.502244 312.786536 
L 709.086891 313.685199 
L 710.671537 314.326276 
L 712.573113 314.83648 
L 715.108547 315.226309 
L 719.228628 315.608733 
L 722.71485 315.672737 
L 737.927457 315.840584 
L 744.266043 315.788923 
L 757.260144 315.67373 
L 763.59873 315.602578 
L 771.838891 315.58749 
L 775.958972 315.44123 
L 779.762124 315.511955 
L 786.417639 315.749701 
L 791.488508 315.625604 
L 813.0397 315.744973 
L 817.159781 315.852557 
L 822.23065 315.696053 
L 830.153882 315.693204 
L 838.394044 315.775418 
L 852.338933 315.789636 
L 856.142084 315.764977 
L 860.579094 315.687445 
L 869.453115 315.765361 
L 875.474771 315.675637 
L 879.594852 315.523433 
L 883.081074 315.663972 
L 888.151943 315.88996 
L 897.342893 315.771789 
L 901.462974 315.786396 
L 912.872428 315.593646 
L 916.041721 315.776211 
L 917.943297 315.859382 
L 922.697237 315.554404 
L 925.866529 315.627494 
L 930.620469 315.786668 
L 934.74055 315.672656 
L 940.762206 315.710591 
L 943.931499 315.584708 
L 947.734651 315.687531 
L 954.707095 315.873863 
L 967.701197 315.833807 
L 973.722853 315.817187 
L 987.033884 315.604716 
L 995.274045 315.757564 
L 997.175621 315.773465 
L 997.175621 315.773465 
" clip-path="url(#p6599e3ff90)" style="fill: none; stroke: #1f77b4; stroke-width: 1.5; stroke-linecap: square"/>
   </g>
   <g id="line2d_108">
    <path d="M 536.994283 33.961459 
L 537.311212 35.636719 
L 537.945071 40.794019 
L 538.578929 48.24156 
L 539.529717 63.274008 
L 540.480505 82.174621 
L 542.065151 119.494607 
L 545.868303 212.727811 
L 547.13602 238.359205 
L 548.403737 259.656441 
L 549.354525 272.713133 
L 550.305313 283.395551 
L 551.256101 291.920691 
L 552.206889 298.561223 
L 553.157677 303.612464 
L 554.108465 307.366287 
L 555.059253 310.092666 
L 556.01004 312.028503 
L 556.960828 313.372612 
L 557.911616 314.285424 
L 558.862404 314.891873 
L 560.130121 315.382864 
L 561.714768 315.693034 
L 563.933273 315.858094 
L 568.687212 315.917347 
L 635.242365 315.92 
L 668.203011 315.811539 
L 670.421516 315.572151 
L 672.006163 315.178413 
L 673.27388 314.621218 
L 674.224668 313.994214 
L 675.175456 313.128369 
L 676.126244 311.963728 
L 677.077032 310.438587 
L 678.02782 308.495331 
L 678.978607 306.088047 
L 680.246325 302.116843 
L 681.514042 297.305299 
L 683.098688 290.354835 
L 686.267981 275.982095 
L 687.535698 271.423768 
L 688.486486 268.923239 
L 689.120345 267.787196 
L 689.754204 267.116704 
L 690.388062 266.931753 
L 690.704991 267.023666 
L 691.33885 267.572817 
L 691.972709 268.593891 
L 692.606567 270.056713 
L 693.557355 272.983473 
L 694.825072 277.956679 
L 696.726648 286.649458 
L 698.945153 296.643844 
L 700.21287 301.553581 
L 701.480588 305.634732 
L 702.748305 308.846705 
L 703.699093 310.717434 
L 704.64988 312.178967 
L 705.600668 313.290072 
L 706.551456 314.112517 
L 707.819173 314.861633 
L 709.086891 315.324698 
L 710.671537 315.645963 
L 712.890042 315.836771 
L 717.010123 315.913434 
L 746.484548 315.92 
L 997.175621 315.92 
L 997.175621 315.92 
" clip-path="url(#p6599e3ff90)" style="fill: none; stroke: #ff7f0e; stroke-linecap: square"/>
   </g>
   <g id="line2d_109">
    <path d="M 675.492385 312.776414 
L 675.809315 312.38897 
L 676.126244 311.963728 
L 676.443173 311.498398 
L 676.760102 310.99074 
L 677.077032 310.438587 
L 677.393961 309.839882 
L 677.71089 309.192709 
L 678.02782 308.495331 
L 678.344749 307.746226 
L 678.661678 306.944123 
L 678.978607 306.088047 
L 679.295537 305.17735 
L 679.612466 304.211757 
L 679.929395 303.191397 
L 680.246325 302.116843 
L 680.563254 300.989141 
L 680.880183 299.80984 
L 681.197113 298.581017 
L 681.514042 297.305299 
L 681.830971 295.985874 
L 682.1479 294.626502 
L 682.46483 293.231514 
L 682.781759 291.805808 
L 683.098688 290.354835 
L 683.415618 288.884577 
L 683.732547 287.401517 
L 684.049476 285.9126 
L 684.366406 284.425189 
L 684.683335 282.94701 
L 685.000264 281.48609 
L 685.317193 280.050688 
L 685.634123 278.649224 
L 685.951052 277.290195 
L 686.267981 275.982095 
L 686.584911 274.733324 
L 686.90184 273.552105 
L 687.218769 272.446389 
L 687.535698 271.423768 
L 687.852628 270.491391 
L 688.169557 269.655876 
L 688.486486 268.923239 
L 688.803416 268.298815 
L 689.120345 267.787196 
L 689.437274 267.392177 
L 689.754204 267.116704 
L 690.071133 266.962844 
L 690.388062 266.931753 
L 690.704991 267.023666 
L 691.021921 267.23789 
L 691.33885 267.572817 
L 691.655779 268.025941 
L 691.972709 268.593891 
L 692.289638 269.272471 
L 692.606567 270.056713 
L 692.923497 270.940937 
L 693.240426 271.918821 
L 693.557355 272.983473 
L 693.874284 274.127514 
L 694.191214 275.343164 
L 694.508143 276.622326 
L 694.825072 277.956679 
L 695.142002 279.337765 
L 695.458931 280.757077 
L 695.77586 282.206147 
L 696.092789 283.676625 
L 696.409719 285.160357 
L 696.726648 286.649458 
L 697.043577 288.136373 
L 697.360507 289.61394 
L 697.677436 291.075438 
L 697.994365 292.514626 
L 698.311295 293.925783 
L 698.628224 295.303728 
L 698.945153 296.643844 
L 699.262082 297.942081 
L 699.579012 299.194963 
L 699.895941 300.39958 
L 700.21287 301.553581 
L 700.5298 302.655152 
L 700.846729 303.702997 
L 701.163658 304.696306 
L 701.480588 305.634732 
L 701.797517 306.518349 
L 702.114446 307.347622 
L 702.431375 308.123365 
L 702.748305 308.846705 
L 703.065234 309.519042 
L 703.382163 310.142008 
L 703.699093 310.717434 
L 704.016022 311.247311 
L 704.332951 311.733753 
L 704.64988 312.178967 
L 704.96681 312.585222 
" clip-path="url(#p6599e3ff90)" style="fill: none; stroke-dasharray: 1.5,2.475; stroke-dashoffset: 0; stroke: #2ca02c; stroke-width: 1.5"/>
   </g>
   <g id="LineCollection_1">
    <path d="M 690.309668 315.92 
L 690.309668 247.336455 
" clip-path="url(#p6599e3ff90)" style="fill: none; stroke-dasharray: 5.55,2.4; stroke-dashoffset: 0; stroke: #1f77b4; stroke-width: 1.5"/>
   </g>
   <g id="patch_10">
    <path d="M 536.994283 315.92 
L 536.994283 32.03125 
" style="fill: none; stroke: #808080; stroke-width: 0.8; stroke-linejoin: miter; stroke-linecap: square"/>
   </g>
   <g id="patch_11">
    <path d="M 996.94044 315.92 
L 996.94044 32.03125 
" style="fill: none; stroke: #808080; stroke-width: 0.8; stroke-linejoin: miter; stroke-linecap: square"/>
   </g>
   <g id="patch_12">
    <path d="M 536.994283 315.92 
L 996.94044 315.92 
" style="fill: none; stroke: #808080; stroke-width: 0.8; stroke-linejoin: miter; stroke-linecap: square"/>
   </g>
   <g id="patch_13">
    <path d="M 536.994283 32.03125 
L 996.94044 32.03125 
" style="fill: none; stroke: #808080; stroke-width: 0.8; stroke-linejoin: miter; stroke-linecap: square"/>
   </g>
   <g id="text_36">
    <g id="patch_14">
     <path d="M 690.309668 223.943507 
L 775.869668 223.943507 
Q 781.869668 223.943507 781.869668 217.943507 
L 781.869668 206.329757 
Q 781.869668 200.329757 775.869668 200.329757 
L 690.309668 200.329757 
Q 684.309668 200.329757 684.309668 206.329757 
L 684.309668 217.943507 
Q 684.309668 223.943507 690.309668 223.943507 
z
" style="fill: #ffffff; fill-opacity: 0.7; stroke: #808080; stroke-linejoin: miter"/>
    </g>
    <!-- $d_1 = $46.55 nm -->
    <g transform="translate(690.309668 215.447882) scale(0.12 -0.12)">
     <defs>
      <path id="DejaVuSans-Oblique-64" d="M 2675 525 
Q 2444 222 2128 65 
Q 1813 -91 1428 -91 
Q 903 -91 598 267 
Q 294 625 294 1247 
Q 294 1766 478 2236 
Q 663 2706 1013 3078 
Q 1244 3325 1534 3454 
Q 1825 3584 2144 3584 
Q 2481 3584 2739 3421 
Q 2997 3259 3138 2956 
L 3513 4863 
L 4091 4863 
L 3144 0 
L 2566 0 
L 2675 525 
z
M 891 1350 
Q 891 897 1095 644 
Q 1300 391 1663 391 
Q 1931 391 2161 520 
Q 2391 650 2566 903 
Q 2750 1166 2856 1509 
Q 2963 1853 2963 2188 
Q 2963 2622 2758 2865 
Q 2553 3109 2194 3109 
Q 1922 3109 1687 2981 
Q 1453 2853 1288 2613 
Q 1106 2353 998 2009 
Q 891 1666 891 1350 
z
" transform="scale(0.015625)"/>
     </defs>
     <use xlink:href="#DejaVuSans-Oblique-64" transform="translate(0 0.015625)"/>
     <use xlink:href="#DejaVuSans-31" transform="translate(63.476562 -16.390625) scale(0.7)"/>
     <use xlink:href="#DejaVuSans-3d" transform="translate(130.229492 0.015625)"/>
     <use xlink:href="#DejaVuSans-34" transform="translate(233.500977 0.015625)"/>
     <use xlink:href="#DejaVuSans-36" transform="translate(297.124023 0.015625)"/>
     <use xlink:href="#DejaVuSans-2e" transform="translate(360.74707 0.015625)"/>
     <use xlink:href="#DejaVuSans-35" transform="translate(392.53418 0.015625)"/>
     <use xlink:href="#DejaVuSans-35" transform="translate(456.157227 0.015625)"/>
     <use xlink:href="#DejaVuSans-20" transform="translate(519.780273 0.015625)"/>
     <use xlink:href="#DejaVuSans-6e" transform="translate(551.567383 0.015625)"/>
     <use xlink:href="#DejaVuSans-6d" transform="translate(614.946289 0.015625)"/>
    </g>
   </g>
   <g id="text_37">
    <g id="patch_15">
     <path d="M 542.822971 69.780125 
L 611.102971 69.780125 
Q 617.102971 69.780125 617.102971 63.780125 
L 617.102971 49.500125 
Q 617.102971 43.500125 611.102971 43.500125 
L 542.822971 43.500125 
Q 536.822971 43.500125 536.822971 49.500125 
L 536.822971 63.780125 
Q 536.822971 69.780125 542.822971 69.780125 
z
" style="fill: #ffffff; fill-opacity: 0.7; stroke: #808080; stroke-linejoin: miter"/>
    </g>
    <!-- $R^2_{\text{Fit}} = $0.999 -->
    <g transform="translate(542.822971 60.420125) scale(0.12 -0.12)">
     <defs>
      <path id="DejaVuSans-Oblique-52" d="M 1613 4147 
L 1294 2491 
L 2106 2491 
Q 2584 2491 2879 2755 
Q 3175 3019 3175 3444 
Q 3175 3784 2976 3965 
Q 2778 4147 2406 4147 
L 1613 4147 
z
M 2772 2241 
Q 2972 2194 3105 2009 
Q 3238 1825 3413 1275 
L 3809 0 
L 3144 0 
L 2778 1197 
Q 2638 1659 2453 1815 
Q 2269 1972 1888 1972 
L 1191 1972 
L 806 0 
L 172 0 
L 1081 4666 
L 2503 4666 
Q 3150 4666 3495 4373 
Q 3841 4081 3841 3531 
Q 3841 3044 3547 2687 
Q 3253 2331 2772 2241 
z
" transform="scale(0.015625)"/>
      <path id="DejaVuSans-46" d="M 628 4666 
L 3309 4666 
L 3309 4134 
L 1259 4134 
L 1259 2759 
L 3109 2759 
L 3109 2228 
L 1259 2228 
L 1259 0 
L 628 0 
L 628 4666 
z
" transform="scale(0.015625)"/>
      <path id="DejaVuSans-39" d="M 703 97 
L 703 672 
Q 941 559 1184 500 
Q 1428 441 1663 441 
Q 2288 441 2617 861 
Q 2947 1281 2994 2138 
Q 2813 1869 2534 1725 
Q 2256 1581 1919 1581 
Q 1219 1581 811 2004 
Q 403 2428 403 3163 
Q 403 3881 828 4315 
Q 1253 4750 1959 4750 
Q 2769 4750 3195 4129 
Q 3622 3509 3622 2328 
Q 3622 1225 3098 567 
Q 2575 -91 1691 -91 
Q 1453 -91 1209 -44 
Q 966 3 703 97 
z
M 1959 2075 
Q 2384 2075 2632 2365 
Q 2881 2656 2881 3163 
Q 2881 3666 2632 3958 
Q 2384 4250 1959 4250 
Q 1534 4250 1286 3958 
Q 1038 3666 1038 3163 
Q 1038 2656 1286 2365 
Q 1534 2075 1959 2075 
z
" transform="scale(0.015625)"/>
     </defs>
     <use xlink:href="#DejaVuSans-Oblique-52" transform="translate(0 0.701562)"/>
     <use xlink:href="#DejaVuSans-32" transform="translate(76.499193 39.046875) scale(0.7)"/>
     <use xlink:href="#DejaVuSans-46" transform="translate(69.482422 -26.642188) scale(0.7)"/>
     <use xlink:href="#DejaVuSans-69" transform="translate(109.746094 -26.642188) scale(0.7)"/>
     <use xlink:href="#DejaVuSans-74" transform="translate(129.194336 -26.642188) scale(0.7)"/>
     <use xlink:href="#DejaVuSans-3d" transform="translate(178.857422 0.701562)"/>
     <use xlink:href="#DejaVuSans-30" transform="translate(282.128906 0.701562)"/>
     <use xlink:href="#DejaVuSans-2e" transform="translate(345.751953 0.701562)"/>
     <use xlink:href="#DejaVuSans-39" transform="translate(377.539062 0.701562)"/>
     <use xlink:href="#DejaVuSans-39" transform="translate(441.162109 0.701562)"/>
     <use xlink:href="#DejaVuSans-39" transform="translate(504.785156 0.701562)"/>
    </g>
   </g>
   <g id="text_38">
    <!-- FFT of XRR data -->
    <g style="fill: #808080" transform="translate(719.038611 26.03125) scale(0.12 -0.12)">
     <defs>
      <path id="DejaVuSans-6f" d="M 1959 3097 
Q 1497 3097 1228 2736 
Q 959 2375 959 1747 
Q 959 1119 1226 758 
Q 1494 397 1959 397 
Q 2419 397 2687 759 
Q 2956 1122 2956 1747 
Q 2956 2369 2687 2733 
Q 2419 3097 1959 3097 
z
M 1959 3584 
Q 2709 3584 3137 3096 
Q 3566 2609 3566 1747 
Q 3566 888 3137 398 
Q 2709 -91 1959 -91 
Q 1206 -91 779 398 
Q 353 888 353 1747 
Q 353 2609 779 3096 
Q 1206 3584 1959 3584 
z
" transform="scale(0.015625)"/>
      <path id="DejaVuSans-66" d="M 2375 4863 
L 2375 4384 
L 1825 4384 
Q 1516 4384 1395 4259 
Q 1275 4134 1275 3809 
L 1275 3500 
L 2222 3500 
L 2222 3053 
L 1275 3053 
L 1275 0 
L 697 0 
L 697 3053 
L 147 3053 
L 147 3500 
L 697 3500 
L 697 3744 
Q 697 4328 969 4595 
Q 1241 4863 1831 4863 
L 2375 4863 
z
" transform="scale(0.015625)"/>
     </defs>
     <use xlink:href="#DejaVuSans-46"/>
     <use xlink:href="#DejaVuSans-46" x="57.519531"/>
     <use xlink:href="#DejaVuSans-54" x="113.289062"/>
     <use xlink:href="#DejaVuSans-20" x="174.373047"/>
     <use xlink:href="#DejaVuSans-6f" x="206.160156"/>
     <use xlink:href="#DejaVuSans-66" x="267.341797"/>
     <use xlink:href="#DejaVuSans-20" x="302.546875"/>
     <use xlink:href="#DejaVuSans-58" x="334.333984"/>
     <use xlink:href="#DejaVuSans-52" x="402.839844"/>
     <use xlink:href="#DejaVuSans-52" x="472.322266"/>
     <use xlink:href="#DejaVuSans-20" x="541.804688"/>
     <use xlink:href="#DejaVuSans-64" x="573.591797"/>
     <use xlink:href="#DejaVuSans-61" x="637.068359"/>
     <use xlink:href="#DejaVuSans-74" x="698.347656"/>
     <use xlink:href="#DejaVuSans-61" x="737.556641"/>
    </g>
   </g>
   <g id="legend_2">
    <g id="patch_16">
     <path d="M 909.757628 84.065625 
L 989.94044 84.065625 
Q 991.94044 84.065625 991.94044 82.065625 
L 991.94044 39.03125 
Q 991.94044 37.03125 989.94044 37.03125 
L 909.757628 37.03125 
Q 907.757628 37.03125 907.757628 39.03125 
L 907.757628 82.065625 
Q 907.757628 84.065625 909.757628 84.065625 
z
" style="fill: #ffffff; opacity: 0.8; stroke: #cccccc; stroke-linejoin: miter"/>
    </g>
    <g id="line2d_110">
     <path d="M 911.757628 45.129687 
L 921.757628 45.129687 
L 931.757628 45.129687 
" style="fill: none; stroke: #1f77b4; stroke-width: 1.5; stroke-linecap: square"/>
    </g>
    <g id="text_39">
     <!-- Data -->
     <g style="fill: #1f77b4" transform="translate(939.757628 48.629687) scale(0.1 -0.1)">
      <use xlink:href="#DejaVuSans-44"/>
      <use xlink:href="#DejaVuSans-61" x="77.001953"/>
      <use xlink:href="#DejaVuSans-74" x="138.28125"/>
      <use xlink:href="#DejaVuSans-61" x="177.490234"/>
     </g>
    </g>
    <g id="line2d_111">
     <path d="M 911.757628 59.807812 
L 921.757628 59.807812 
L 931.757628 59.807812 
" style="fill: none; stroke: #ff7f0e; stroke-linecap: square"/>
    </g>
    <g id="text_40">
     <!-- Model -->
     <g style="fill: #ff7f0e" transform="translate(939.757628 63.307812) scale(0.1 -0.1)">
      <defs>
       <path id="DejaVuSans-4d" d="M 628 4666 
L 1569 4666 
L 2759 1491 
L 3956 4666 
L 4897 4666 
L 4897 0 
L 4281 0 
L 4281 4097 
L 3078 897 
L 2444 897 
L 1241 4097 
L 1241 0 
L 628 0 
L 628 4666 
z
" transform="scale(0.015625)"/>
      </defs>
      <use xlink:href="#DejaVuSans-4d"/>
      <use xlink:href="#DejaVuSans-6f" x="86.279297"/>
      <use xlink:href="#DejaVuSans-64" x="147.460938"/>
      <use xlink:href="#DejaVuSans-65" x="210.9375"/>
      <use xlink:href="#DejaVuSans-6c" x="272.460938"/>
     </g>
    </g>
    <g id="line2d_112">
     <path d="M 911.757628 74.485937 
L 921.757628 74.485937 
L 931.757628 74.485937 
" style="fill: none; stroke-dasharray: 1.5,2.475; stroke-dashoffset: 0; stroke: #2ca02c; stroke-width: 1.5"/>
    </g>
    <g id="text_41">
     <!-- Fit Peak 1 -->
     <g style="fill: #2ca02c" transform="translate(939.757628 77.985937) scale(0.1 -0.1)">
      <defs>
       <path id="DejaVuSans-50" d="M 1259 4147 
L 1259 2394 
L 2053 2394 
Q 2494 2394 2734 2622 
Q 2975 2850 2975 3272 
Q 2975 3691 2734 3919 
Q 2494 4147 2053 4147 
L 1259 4147 
z
M 628 4666 
L 2053 4666 
Q 2838 4666 3239 4311 
Q 3641 3956 3641 3272 
Q 3641 2581 3239 2228 
Q 2838 1875 2053 1875 
L 1259 1875 
L 1259 0 
L 628 0 
L 628 4666 
z
" transform="scale(0.015625)"/>
      </defs>
      <use xlink:href="#DejaVuSans-46"/>
      <use xlink:href="#DejaVuSans-69" x="50.269531"/>
      <use xlink:href="#DejaVuSans-74" x="78.052734"/>
      <use xlink:href="#DejaVuSans-20" x="117.261719"/>
      <use xlink:href="#DejaVuSans-50" x="149.048828"/>
      <use xlink:href="#DejaVuSans-65" x="205.726562"/>
      <use xlink:href="#DejaVuSans-61" x="267.25"/>
      <use xlink:href="#DejaVuSans-6b" x="328.529297"/>
      <use xlink:href="#DejaVuSans-20" x="386.439453"/>
      <use xlink:href="#DejaVuSans-31" x="418.226562"/>
     </g>
    </g>
   </g>
  </g>
  <g id="text_42">
   <!-- example_1 -->
   <g style="fill: #808080" transform="translate(465.295753 9.118125) scale(0.12 -0.12)">
    <defs>
     <path id="DejaVuSans-78" d="M 3513 3500 
L 2247 1797 
L 3578 0 
L 2900 0 
L 1881 1375 
L 863 0 
L 184 0 
L 1544 1831 
L 300 3500 
L 978 3500 
L 1906 2253 
L 2834 3500 
L 3513 3500 
z
" transform="scale(0.015625)"/>
     <path id="DejaVuSans-70" d="M 1159 525 
L 1159 -1331 
L 581 -1331 
L 581 3500 
L 1159 3500 
L 1159 2969 
Q 1341 3281 1617 3432 
Q 1894 3584 2278 3584 
Q 2916 3584 3314 3078 
Q 3713 2572 3713 1747 
Q 3713 922 3314 415 
Q 2916 -91 2278 -91 
Q 1894 -91 1617 61 
Q 1341 213 1159 525 
z
M 3116 1747 
Q 3116 2381 2855 2742 
Q 2594 3103 2138 3103 
Q 1681 3103 1420 2742 
Q 1159 2381 1159 1747 
Q 1159 1113 1420 752 
Q 1681 391 2138 391 
Q 2594 391 2855 752 
Q 3116 1113 3116 1747 
z
" transform="scale(0.015625)"/>
     <path id="DejaVuSans-5f" d="M 3263 -1063 
L 3263 -1509 
L -63 -1509 
L -63 -1063 
L 3263 -1063 
z
" transform="scale(0.015625)"/>
    </defs>
    <use xlink:href="#DejaVuSans-65"/>
    <use xlink:href="#DejaVuSans-78" x="59.773438"/>
    <use xlink:href="#DejaVuSans-61" x="118.953125"/>
    <use xlink:href="#DejaVuSans-6d" x="180.232422"/>
    <use xlink:href="#DejaVuSans-70" x="277.644531"/>
    <use xlink:href="#DejaVuSans-6c" x="341.121094"/>
    <use xlink:href="#DejaVuSans-65" x="368.904297"/>
    <use xlink:href="#DejaVuSans-5f" x="430.427734"/>
    <use xlink:href="#DejaVuSans-31" x="480.427734"/>
   </g>
  </g>
 </g>
 <defs>
  <clipPath id="pa2cc385067">
   <rect x="38.278125" y="32.03125" width="459.946158" height="283.88875"/>
  </clipPath>
  <clipPath id="p6599e3ff90">
   <rect x="536.994283" y="32.03125" width="459.946158" height="283.88875"/>
  </clipPath>
 </defs>
</svg>
